<svg width="9" height="9" viewBox="0 0 9 9" fill="none" xmlns="http://www.w3.org/2000/svg">
<path d="M8.9502 5.0498V8.9502H0.0498047V5.0498H8.9502Z" fill="url(#paint0_linear_31_1076)" stroke="#CD8200" stroke-width="0.1"/>
<path d="M4.5 4.0498C5.74001 4.0498 6.86109 4.16186 7.6709 4.3418C8.07622 4.43187 8.40099 4.53861 8.62305 4.65527C8.73408 4.71362 8.81745 4.77272 8.87207 4.83203C8.92645 4.89109 8.9502 4.94727 8.9502 5C8.9502 5.05273 8.92645 5.10891 8.87207 5.16797C8.81745 5.22728 8.73408 5.28638 8.62305 5.34473C8.40099 5.46139 8.07622 5.56813 7.6709 5.6582C6.86109 5.83814 5.74001 5.9502 4.5 5.9502C3.25999 5.9502 2.13891 5.83814 1.3291 5.6582C0.923781 5.56813 0.599008 5.46139 0.376953 5.34473C0.265918 5.28638 0.182551 5.22728 0.12793 5.16797C0.0735471 5.10891 0.0498047 5.05273 0.0498047 5C0.0498047 4.94727 0.0735471 4.89109 0.12793 4.83203C0.182551 4.77272 0.265918 4.71362 0.376953 4.65527C0.599008 4.53861 0.923781 4.43187 1.3291 4.3418C2.13891 4.16186 3.25999 4.0498 4.5 4.0498Z" fill="white" fill-opacity="0.9"/>
<path d="M4.5 4.0498C5.74001 4.0498 6.86109 4.16186 7.6709 4.3418C8.07622 4.43187 8.40099 4.53861 8.62305 4.65527C8.73408 4.71362 8.81745 4.77272 8.87207 4.83203C8.92645 4.89109 8.9502 4.94727 8.9502 5C8.9502 5.05273 8.92645 5.10891 8.87207 5.16797C8.81745 5.22728 8.73408 5.28638 8.62305 5.34473C8.40099 5.46139 8.07622 5.56813 7.6709 5.6582C6.86109 5.83814 5.74001 5.9502 4.5 5.9502C3.25999 5.9502 2.13891 5.83814 1.3291 5.6582C0.923781 5.56813 0.599008 5.46139 0.376953 5.34473C0.265918 5.28638 0.182551 5.22728 0.12793 5.16797C0.0735471 5.10891 0.0498047 5.05273 0.0498047 5C0.0498047 4.94727 0.0735471 4.89109 0.12793 4.83203C0.182551 4.77272 0.265918 4.71362 0.376953 4.65527C0.599008 4.53861 0.923781 4.43187 1.3291 4.3418C2.13891 4.16186 3.25999 4.0498 4.5 4.0498Z" fill="url(#paint1_radial_31_1076)"/>
<path d="M4.5 4.0498C5.74001 4.0498 6.86109 4.16186 7.6709 4.3418C8.07622 4.43187 8.40099 4.53861 8.62305 4.65527C8.73408 4.71362 8.81745 4.77272 8.87207 4.83203C8.92645 4.89109 8.9502 4.94727 8.9502 5C8.9502 5.05273 8.92645 5.10891 8.87207 5.16797C8.81745 5.22728 8.73408 5.28638 8.62305 5.34473C8.40099 5.46139 8.07622 5.56813 7.6709 5.6582C6.86109 5.83814 5.74001 5.9502 4.5 5.9502C3.25999 5.9502 2.13891 5.83814 1.3291 5.6582C0.923781 5.56813 0.599008 5.46139 0.376953 5.34473C0.265918 5.28638 0.182551 5.22728 0.12793 5.16797C0.0735471 5.10891 0.0498047 5.05273 0.0498047 5C0.0498047 4.94727 0.0735471 4.89109 0.12793 4.83203C0.182551 4.77272 0.265918 4.71362 0.376953 4.65527C0.599008 4.53861 0.923781 4.43187 1.3291 4.3418C2.13891 4.16186 3.25999 4.0498 4.5 4.0498Z" stroke="#CD8200" stroke-width="0.1"/>
<path d="M4 4.5C4 4.77614 4.22386 5 4.5 5C4.77614 5 5 4.77614 5 4.5H4.5H4ZM4.5 4.5H5V0H4.5H4V4.5H4.5Z" fill="url(#paint2_linear_31_1076)"/>
<defs>
<linearGradient id="paint0_linear_31_1076" x1="0" y1="7.5" x2="9" y2="7.5" gradientUnits="userSpaceOnUse">
<stop stop-color="#FFB638"/>
<stop offset="0.159955" stop-color="#FFDB9C"/>
<stop offset="0.31991" stop-color="#FFB638"/>
<stop offset="1" stop-color="#C17B04"/>
</linearGradient>
<radialGradient id="paint1_radial_31_1076" cx="0" cy="0" r="1" gradientUnits="userSpaceOnUse" gradientTransform="translate(3 5) scale(6 1.33333)">
<stop stop-color="white" stop-opacity="0.2"/>
<stop offset="0.100962" stop-color="#FFDB9C" stop-opacity="0.6"/>
<stop offset="0.331731" stop-color="#FFC86A" stop-opacity="0.8"/>
<stop offset="0.5625" stop-color="#FFB638"/>
<stop offset="0.889423" stop-color="#C17B04"/>
</radialGradient>
<linearGradient id="paint2_linear_31_1076" x1="2.6875" y1="2.25" x2="8.3125" y2="2.25" gradientUnits="userSpaceOnUse">
<stop offset="0.211538" stop-color="white"/>
<stop offset="1" stop-color="#999999"/>
</linearGradient>
</defs>
</svg>
