<svg width="20" height="20" viewBox="0 0 20 20" fill="none" xmlns="http://www.w3.org/2000/svg">
<g clip-path="url(#clip0_27_1003)">
<path d="M4.81797 15.9469L1.25 10L4.81797 4.05313C4.87354 3.96064 4.9521 3.88411 5.04602 3.83099C5.13994 3.77787 5.24601 3.74997 5.35391 3.75H16.875C17.0408 3.75 17.1997 3.81585 17.3169 3.93306C17.4342 4.05027 17.5 4.20924 17.5 4.375V15.625C17.5 15.7908 17.4342 15.9497 17.3169 16.0669C17.1997 16.1842 17.0408 16.25 16.875 16.25H5.35391C5.24601 16.25 5.13994 16.2221 5.04602 16.169C4.9521 16.1159 4.87354 16.0394 4.81797 15.9469Z" stroke="#1F2766" stroke-width="1.5" stroke-linecap="round" stroke-linejoin="round"/>
<path d="M12.5 8.125L8.75 11.875" stroke="#1F2766" stroke-width="1.5" stroke-linecap="round" stroke-linejoin="round"/>
<path d="M12.5 11.875L8.75 8.125" stroke="#1F2766" stroke-width="1.5" stroke-linecap="round" stroke-linejoin="round"/>
</g>
<defs>
<clipPath id="clip0_27_1003">
<rect width="20" height="20" fill="white"/>
</clipPath>
</defs>
</svg>
