<svg width="19" height="14" viewBox="0 0 19 14" fill="none" xmlns="http://www.w3.org/2000/svg">
<path d="M11.3072 7.35417C11.3706 6.97411 11.6149 6.53523 12.0402 6.03753C12.4655 5.53984 12.9903 5.28646 13.6147 5.27741C13.9314 5.27741 14.221 5.35885 14.4834 5.52174C14.7459 5.68462 14.9404 5.88822 15.0671 6.13255C15.4472 5.56246 15.9041 5.27741 16.438 5.27741C16.7728 5.27741 17.0624 5.37695 17.3067 5.57603C17.5511 5.77511 17.6777 6.04206 17.6868 6.37687C17.6868 6.6393 17.6235 6.85195 17.4968 7.01483C17.3701 7.17771 17.2479 7.27725 17.1303 7.31345C17.0126 7.34965 16.9086 7.36774 16.8181 7.36774C16.6462 7.36774 16.5059 7.31797 16.3973 7.21844C16.2887 7.1189 16.2344 6.98768 16.2344 6.8248C16.2344 6.40854 16.4607 6.1235 16.9131 5.96967C16.8136 5.85203 16.6326 5.79321 16.3702 5.79321C16.2525 5.79321 16.1666 5.80226 16.1123 5.82036C15.7684 5.96514 15.515 6.26376 15.3521 6.71621C14.8092 8.71605 14.5377 9.88338 14.5377 10.2182C14.5377 10.4716 14.6101 10.6526 14.7549 10.7611C14.8997 10.8697 15.058 10.924 15.23 10.924C15.5648 10.924 15.8951 10.7747 16.2209 10.4761C16.5466 10.1775 16.7683 9.81099 16.886 9.37664C16.9131 9.28614 16.9403 9.23637 16.9674 9.22733C16.9945 9.21828 17.0669 9.20923 17.1846 9.20018H17.2389C17.3746 9.20018 17.4425 9.23637 17.4425 9.30877C17.4425 9.31782 17.4334 9.36759 17.4153 9.45808C17.2705 9.97387 16.99 10.4309 16.5738 10.829C16.1575 11.2272 15.6734 11.4262 15.1214 11.4262C14.488 11.4262 14.0084 11.1412 13.6826 10.5711C13.3116 11.1322 12.8863 11.4127 12.4067 11.4127H12.3252C11.8818 11.4127 11.5651 11.295 11.3751 11.0598C11.1851 10.8245 11.0855 10.5756 11.0765 10.3132C11.0765 10.0236 11.1624 9.78837 11.3344 9.60739C11.5063 9.42641 11.7099 9.33591 11.9452 9.33591C12.3343 9.33591 12.5288 9.52594 12.5288 9.90601C12.5288 10.087 12.4745 10.2453 12.366 10.3811C12.2574 10.5168 12.1533 10.6073 12.0538 10.6526C11.9542 10.6978 11.8954 10.7204 11.8773 10.7204L11.8366 10.734C11.8366 10.743 11.8637 10.7611 11.918 10.7883C11.9723 10.8154 12.0447 10.8471 12.1352 10.8833C12.2257 10.9195 12.3117 10.9331 12.3931 10.924C12.7189 10.924 12.9994 10.7204 13.2347 10.3132C13.3161 10.1684 13.4202 9.86076 13.5469 9.39021C13.6735 8.91966 13.8002 8.43101 13.9269 7.92426C14.0536 7.41751 14.126 7.1189 14.1441 7.02841C14.1893 6.78408 14.212 6.60762 14.212 6.49904C14.212 6.24566 14.1441 6.06468 14.0084 5.95609C13.8726 5.8475 13.7188 5.79321 13.5469 5.79321C13.1849 5.79321 12.8456 5.93799 12.5288 6.22756C12.2121 6.51713 11.9904 6.88814 11.8637 7.3406C11.8456 7.42204 11.823 7.46728 11.7959 7.47633C11.7687 7.48538 11.6963 7.49443 11.5787 7.50348H11.3887C11.3344 7.44919 11.3072 7.39942 11.3072 7.35417Z" fill="white"/>
<path d="M0.312604 8.44277C0.258309 8.44277 0.194966 8.40657 0.122574 8.33418C0.0501811 8.26179 0.00946038 8.19845 0.000411321 8.14415C-0.00863774 8.08986 0.131623 7.95412 0.421192 7.73694C0.710762 7.51977 1.00938 7.29354 1.31705 7.05826C1.62472 6.82299 1.79665 6.69178 1.83285 6.66463C1.85094 6.64653 1.87357 6.63748 1.90071 6.63748H1.91429C1.96858 6.63748 2.03192 6.7144 2.10432 6.86823C2.17671 7.02207 2.42103 7.55144 2.83729 8.45634C3.00922 8.84545 3.14948 9.15765 3.25807 9.39292L4.41183 11.904C4.42088 11.904 4.89143 10.9403 5.82348 9.01286C6.75553 7.08541 7.68759 5.14439 8.61964 3.18979C9.55169 1.2352 10.0358 0.235276 10.072 0.190031C10.1263 0.0633438 10.2168 4.32134e-07 10.3435 4.32134e-07C10.4068 4.32134e-07 10.4611 0.0271476 10.5064 0.0814419C10.5516 0.135736 10.5833 0.190031 10.6014 0.244325V0.325766L7.43874 6.88181L4.24894 13.4786C4.21275 13.5419 4.12678 13.5736 3.99105 13.5736C3.9096 13.5736 3.85531 13.56 3.82816 13.5329C3.81006 13.5148 3.36666 12.5556 2.49795 10.6553L1.19489 7.80481L0.97771 7.95412C0.841974 8.06271 0.701713 8.1713 0.556928 8.27989C0.412143 8.38848 0.330702 8.44277 0.312604 8.44277Z" fill="white"/>
<path d="M18.3655 0.81443H10.6014V1.51396e-05H18.3655V0.81443Z" fill="white"/>
</svg>
