<svg width="11" height="28" viewBox="0 0 11 28" fill="none" xmlns="http://www.w3.org/2000/svg">
<path d="M4.73743 1.19455L4.56096 1.26242C4.43427 1.30767 4.25328 1.35292 4.01799 1.39817C3.7827 1.44341 3.52027 1.47509 3.23068 1.49319H2.97277V0.868767H3.23068C3.65601 0.850668 4.04967 0.782797 4.41165 0.665153C4.77363 0.547509 5.02701 0.438915 5.17181 0.33937C5.3166 0.239825 5.44329 0.14028 5.55189 0.0407351C5.56999 0.0135865 5.62428 1.21836e-05 5.71478 1.21836e-05C5.79623 1.21836e-05 5.87315 0.0271608 5.94554 0.081458V4.14017L5.95912 8.21246C6.02246 8.27581 6.07676 8.31653 6.12201 8.33463C6.16726 8.35273 6.27585 8.37083 6.44779 8.38893C6.61973 8.40703 6.90027 8.41608 7.2894 8.41608H7.64233V9.0405H7.49301C7.30297 9.01335 6.58353 8.99977 5.3347 8.99977C4.10396 8.99977 3.39357 9.01335 3.20353 9.0405H3.04064V8.41608H3.39357C3.59266 8.41608 3.7646 8.41608 3.9094 8.41608C4.05419 8.41608 4.16731 8.41155 4.24876 8.4025C4.3302 8.39346 4.4026 8.37988 4.46594 8.36178C4.52929 8.34368 4.56549 8.33463 4.57454 8.33463C4.58359 8.33463 4.61074 8.31201 4.65598 8.26676C4.70123 8.22151 4.72838 8.20341 4.73743 8.21246V1.19455Z" fill="white"/>
<path d="M2.06329 23.6057C2.12664 23.2256 2.37098 22.7867 2.79631 22.289C3.22163 21.7913 3.74651 21.5379 4.37093 21.5289C4.68766 21.5289 4.97724 21.6103 5.23968 21.7732C5.50212 21.9361 5.69668 22.1397 5.82338 22.384C6.20346 21.8139 6.66046 21.5289 7.19438 21.5289C7.52921 21.5289 7.8188 21.6284 8.06314 21.8275C8.30747 22.0266 8.43417 22.2935 8.44322 22.6284C8.44322 22.8908 8.37987 23.1035 8.25318 23.2664C8.12648 23.4293 8.00431 23.5288 7.88667 23.565C7.76903 23.6012 7.66496 23.6193 7.57446 23.6193C7.40252 23.6193 7.26225 23.5695 7.15366 23.47C7.04506 23.3704 6.99077 23.2392 6.99077 23.0763C6.99077 22.66 7.217 22.375 7.66948 22.2211C7.56994 22.1035 7.38894 22.0447 7.12651 22.0447C7.00886 22.0447 6.92289 22.0537 6.8686 22.0718C6.52471 22.2166 6.27133 22.5152 6.10844 22.9677C5.56546 24.9677 5.29398 26.1351 5.29398 26.4699C5.29398 26.7233 5.36637 26.9043 5.51117 27.0129C5.65596 27.1215 5.81433 27.1758 5.98627 27.1758C6.3211 27.1758 6.65141 27.0264 6.97719 26.7278C7.30297 26.4292 7.52469 26.0627 7.64233 25.6283C7.66948 25.5378 7.69663 25.488 7.72378 25.479C7.75093 25.4699 7.82332 25.4609 7.94097 25.4518H7.99526C8.13101 25.4518 8.19888 25.488 8.19888 25.5604C8.19888 25.5695 8.18983 25.6192 8.17173 25.7097C8.02694 26.2256 7.7464 26.6826 7.33012 27.0807C6.91384 27.4789 6.42969 27.678 5.87767 27.678C5.24421 27.678 4.76458 27.3929 4.4388 26.8228C4.06777 27.3839 3.64244 27.6644 3.16281 27.6644H3.08137C2.63794 27.6644 2.32121 27.5468 2.13117 27.3115C1.94113 27.0762 1.84158 26.8274 1.83253 26.5649C1.83253 26.2753 1.9185 26.04 2.09044 25.8591C2.26238 25.6781 2.466 25.5876 2.70129 25.5876C3.09042 25.5876 3.28498 25.7776 3.28498 26.1577C3.28498 26.3387 3.23068 26.497 3.12209 26.6328C3.0135 26.7685 2.90943 26.859 2.80988 26.9043C2.71034 26.9495 2.65151 26.9721 2.63341 26.9721L2.59269 26.9857C2.59269 26.9948 2.61984 27.0129 2.67414 27.04C2.72843 27.0672 2.80083 27.0988 2.89133 27.135C2.98182 27.1712 3.06779 27.1848 3.14924 27.1758C3.47502 27.1758 3.75556 26.9721 3.99084 26.5649C4.07229 26.4201 4.17636 26.1124 4.30305 25.6419C4.42975 25.1713 4.55644 24.6826 4.68313 24.1758C4.80983 23.6691 4.88222 23.3704 4.90032 23.2799C4.94557 23.0356 4.96819 22.8591 4.96819 22.7505C4.96819 22.4972 4.90032 22.3162 4.76458 22.2076C4.62884 22.099 4.47499 22.0447 4.30305 22.0447C3.94107 22.0447 3.60171 22.1895 3.28498 22.4791C2.96825 22.7686 2.74653 23.1397 2.61984 23.5921C2.60174 23.6736 2.57912 23.7188 2.55197 23.7279C2.52482 23.7369 2.45242 23.746 2.33478 23.755H2.14474C2.09044 23.7007 2.06329 23.651 2.06329 23.6057Z" fill="white"/>
<path d="M10.4794 15.2304H0V14.4159H10.4794V15.2304Z" fill="white"/>
</svg>
