<svg width="13" height="13" viewBox="0 0 13 13" fill="none" xmlns="http://www.w3.org/2000/svg">
<path d="M0.230779 8.0754C0.29413 7.6953 0.538485 7.25636 0.963843 6.7586C1.3892 6.26084 1.91411 6.00744 2.53857 5.99839C2.85533 5.99839 3.14493 6.07984 3.40739 6.24274C3.66984 6.40565 3.86442 6.60928 3.99112 6.85363C4.37123 6.28347 4.82827 5.99839 5.36222 5.99839C5.69708 5.99839 5.98669 6.09794 6.23104 6.29705C6.4754 6.49615 6.6021 6.76313 6.61115 7.09799C6.61115 7.36044 6.5478 7.57312 6.42109 7.73602C6.29439 7.89893 6.17222 7.99848 6.05456 8.03468C5.93691 8.07088 5.83283 8.08898 5.74233 8.08898C5.57038 8.08898 5.4301 8.0392 5.3215 7.93965C5.2129 7.8401 5.1586 7.70887 5.1586 7.54597C5.1586 7.12966 5.38485 6.84458 5.83736 6.69073C5.73781 6.57308 5.5568 6.51425 5.29435 6.51425C5.1767 6.51425 5.09072 6.5233 5.03642 6.5414C4.69251 6.6862 4.43911 6.98486 4.2762 7.43737C3.73319 9.43745 3.46169 10.6049 3.46169 10.9398C3.46169 11.1932 3.53409 11.3742 3.67889 11.4828C3.8237 11.5914 3.98207 11.6457 4.15403 11.6457C4.48888 11.6457 4.81921 11.4964 5.14502 11.1977C5.47083 10.8991 5.69256 10.5325 5.81021 10.0981C5.83736 10.0076 5.86451 9.95784 5.89166 9.94879C5.91881 9.93974 5.99121 9.93069 6.10886 9.92164H6.16316C6.29892 9.92164 6.36679 9.95784 6.36679 10.0302C6.36679 10.0393 6.35774 10.0891 6.33964 10.1796C6.19484 10.6954 5.91429 11.1525 5.49798 11.5507C5.08167 11.9489 4.59749 12.148 4.04543 12.148C3.41191 12.148 2.93225 11.8629 2.60645 11.2927C2.23539 11.8538 1.81003 12.1344 1.33037 12.1344H1.24892C0.805465 12.1344 0.488709 12.0168 0.298656 11.7814C0.108602 11.5461 0.00905017 11.2973 0 11.0348C0 10.7452 0.0859766 10.5099 0.25793 10.3289C0.429883 10.1479 0.633512 10.0574 0.868816 10.0574C1.25797 10.0574 1.45255 10.2474 1.45255 10.6276C1.45255 10.8086 1.39825 10.9669 1.28965 11.1027C1.18105 11.2384 1.07697 11.3289 0.977418 11.3742C0.877866 11.4194 0.81904 11.4421 0.80094 11.4421L0.760214 11.4556C0.760214 11.4647 0.787365 11.4828 0.841666 11.5099C0.895967 11.5371 0.968368 11.5688 1.05887 11.605C1.14937 11.6412 1.23535 11.6547 1.3168 11.6457C1.64261 11.6457 1.92316 11.4421 2.15847 11.0348C2.23992 10.89 2.34399 10.5823 2.4707 10.1117C2.5974 9.64108 2.7241 9.15237 2.8508 8.64556C2.97751 8.13876 3.04991 7.8401 3.06801 7.7496C3.11326 7.50524 3.13588 7.32876 3.13588 7.22016C3.13588 6.96676 3.06801 6.78575 2.93225 6.67715C2.7965 6.56855 2.64265 6.51425 2.4707 6.51425C2.10869 6.51425 1.76931 6.65905 1.45255 6.94866C1.1358 7.23826 0.914067 7.60932 0.787365 8.06183C0.769264 8.14328 0.746639 8.18853 0.719488 8.19758C0.692338 8.20663 0.619937 8.21568 0.502284 8.22473H0.312231C0.25793 8.17043 0.230779 8.12065 0.230779 8.0754Z" fill="white"/>
<path d="M8.78404 2.27464C8.61128 2.27464 8.47371 2.21706 8.37134 2.10189C8.26896 1.98671 8.21777 1.84595 8.21777 1.67959C8.21777 1.2253 8.38733 0.83179 8.72645 0.499069C9.06557 0.166349 9.48787 -1.14143e-05 9.99335 -1.14143e-05C10.5756 -1.14143e-05 11.0619 0.179146 11.4522 0.53746C11.8425 0.895774 12.0409 1.35966 12.0473 1.92913C12.0473 2.20426 11.9833 2.4666 11.8553 2.71614C11.7273 2.96568 11.5738 3.18323 11.3946 3.36878C11.2155 3.55434 10.9595 3.79108 10.6268 4.07901C10.3965 4.27737 10.0765 4.57169 9.66703 4.962L9.10076 5.49947L9.83019 5.50907C10.8347 5.50907 11.369 5.49307 11.433 5.46108C11.4778 5.44829 11.5546 5.16355 11.6633 4.60689V4.57809H12.0473V4.60689C12.0409 4.62608 11.9993 4.91721 11.9225 5.48028C11.8457 6.04334 11.7977 6.33767 11.7785 6.36327V6.39206H8.21777V6.2097V6.09453C8.21777 6.04974 8.23697 6.00175 8.27536 5.95056C8.31375 5.89938 8.40973 5.7874 8.56329 5.61465C8.74885 5.40989 8.90881 5.23074 9.04318 5.07717C9.10076 5.01319 9.20954 4.89482 9.3695 4.72206C9.52946 4.5493 9.63823 4.43093 9.69582 4.36694C9.75341 4.30296 9.84618 4.19738 9.97415 4.05022C10.1021 3.90305 10.1917 3.79428 10.2429 3.7239C10.2941 3.65351 10.3677 3.55754 10.4636 3.43597C10.5596 3.3144 10.6268 3.21202 10.6652 3.12884C10.7036 3.04566 10.7516 2.95288 10.8092 2.85051C10.8667 2.74813 10.9083 2.64576 10.9339 2.54338C10.9595 2.441 10.9819 2.34503 11.0011 2.25545C11.0203 2.16587 11.0299 2.0603 11.0299 1.93872C11.0299 1.53562 10.9211 1.1869 10.7036 0.892575C10.486 0.598245 10.1757 0.451081 9.7726 0.451081C9.56145 0.451081 9.3759 0.505468 9.21593 0.614242C9.05597 0.723016 8.944 0.82859 8.88002 0.930966C8.81603 1.03334 8.78404 1.09413 8.78404 1.11332C8.78404 1.11972 8.80003 1.12292 8.83203 1.12292C8.9472 1.12292 9.06557 1.16771 9.18714 1.25729C9.30871 1.34687 9.3695 1.49403 9.3695 1.69878C9.3695 1.85874 9.31831 1.99311 9.21593 2.10189C9.11356 2.21066 8.96959 2.26825 8.78404 2.27464Z" fill="white"/>
</svg>
