<svg width="38" height="50" viewBox="0 0 38 50" fill="none" xmlns="http://www.w3.org/2000/svg">
<g filter="url(#filter0_d_34_1137)">
<path d="M18.9063 10.0001C18.9063 10.0001 18.8454 10.0029 18.8201 10.0076C18.7681 10.0166 18.718 10.0343 18.6719 10.0601C18.6112 10.0964 18.5567 10.1423 18.5107 10.196C18.4732 10.2382 18.4451 10.2767 18.4141 10.3207C18.3442 10.418 18.2764 10.5168 18.2107 10.617L18.0223 10.9029C18.0195 10.9057 18.0204 10.9085 18.0185 10.9123C18.0148 10.9123 18.0129 10.9123 18.0091 10.9142L17.6791 11.0032C17.5582 11.037 17.4354 11.0707 17.3323 11.1045C17.2798 11.1213 17.2348 11.1354 17.1832 11.157C17.1191 11.1848 17.0599 11.2228 17.0079 11.2695C16.9685 11.3055 16.9355 11.348 16.9104 11.3951C16.898 11.421 16.8864 11.4472 16.8757 11.4738C16.8757 11.4757 16.8607 11.532 16.857 11.5563C16.8499 11.6093 16.8512 11.6631 16.8607 11.7157C16.8701 11.7635 16.8832 11.7917 16.8926 11.8151C16.9113 11.8601 16.9254 11.8835 16.9395 11.9088C16.9685 11.9557 16.9957 11.996 17.0276 12.0401C17.0913 12.1282 17.171 12.2276 17.2488 12.3251L17.4635 12.5932C17.4654 12.5951 17.4645 12.596 17.4673 12.5979V12.6091L17.4523 12.9513C17.4466 13.077 17.4382 13.2016 17.4382 13.3104L17.4401 13.3582L13.8851 18.8866C13.8809 18.8931 13.8768 18.8997 13.8729 18.9063C13.7912 19.049 13.7483 19.2106 13.7487 19.375C13.749 19.5395 13.7925 19.7009 13.8747 19.8433C13.957 19.9856 14.0752 20.1039 14.2175 20.1862C14.3599 20.2686 14.5213 20.3122 14.6857 20.3126H15.1563L12.0345 25.1688C12.0306 25.175 12.0268 25.1812 12.0232 25.1875C11.9245 25.3586 11.8725 25.5527 11.8725 25.7502C11.8725 25.9478 11.9246 26.1418 12.0234 26.3129C12.1222 26.4839 12.2643 26.6259 12.4355 26.7246C12.6066 26.8233 12.8007 26.8752 12.9982 26.875H13.1276L10.1848 31.4491C10.1812 31.4556 10.1778 31.4621 10.1745 31.4688C10.0599 31.6684 9.99974 31.8945 10 32.1247C10.0003 32.3548 10.061 32.5808 10.176 32.7802C10.291 32.9795 10.4564 33.1451 10.6555 33.2605C10.8547 33.3758 11.0806 33.4369 11.3107 33.4375H16.5607V39.5313C16.5607 39.6556 16.6101 39.7748 16.698 39.8627C16.7859 39.9506 16.9051 40 17.0295 40H20.7794C20.9038 40 21.023 39.9506 21.1109 39.8627C21.1988 39.7748 21.2482 39.6556 21.2482 39.5313V33.4375L26.4982 33.4394V33.4375C26.965 33.4375 27.3982 33.1863 27.6325 32.7813C27.6325 32.7816 27.6325 32.781 27.6325 32.7813C27.8669 32.3753 27.8669 31.8728 27.6325 31.4678C27.6292 31.4621 27.6258 31.4565 27.6222 31.451L24.6813 26.875H24.8116C25.009 26.8747 25.2028 26.8225 25.3736 26.7237C25.5444 26.6249 25.6863 26.4829 25.7849 26.312C25.8836 26.1411 25.9356 25.9472 25.9357 25.7499C25.9358 25.5525 25.8841 25.3586 25.7857 25.1875C25.7815 25.1812 25.7771 25.1749 25.7726 25.1688L22.6488 20.3126H23.1232C23.2876 20.3122 23.449 20.2686 23.5914 20.1862C23.7337 20.1039 23.8519 19.9856 23.9342 19.8433C24.0164 19.7009 24.0599 19.5395 24.0602 19.375C24.0606 19.2106 24.0177 19.049 23.936 18.9063C23.9324 18.8997 23.9287 18.8931 23.9247 18.8866L20.3669 13.3526L20.3688 13.3151C20.3688 13.2054 20.3613 13.0788 20.3557 12.9532C20.3504 12.8392 20.3454 12.7251 20.3407 12.611V12.6035L20.3463 12.5941L20.561 12.3288C20.6388 12.2313 20.7157 12.1329 20.7804 12.0457C20.8123 12.0016 20.8432 11.9613 20.8723 11.9135C20.9083 11.8537 20.9337 11.788 20.9473 11.7195C20.9638 11.6391 20.9593 11.5557 20.9341 11.4776C20.9341 11.4776 20.9135 11.4213 20.9013 11.3988C20.8757 11.3517 20.8428 11.309 20.8038 11.2723C20.7682 11.2395 20.741 11.2235 20.7194 11.2104C20.6896 11.1913 20.6582 11.1747 20.6257 11.1607C20.5766 11.1402 20.5265 11.1221 20.4757 11.1063C20.362 11.0702 20.2476 11.0364 20.1326 11.0051L19.8026 10.916L19.7951 10.9142L19.7876 10.9048L19.601 10.6207C19.5353 10.5193 19.4675 10.4193 19.3976 10.3207C19.3673 10.2777 19.3351 10.2361 19.301 10.196C19.2554 10.1431 19.2016 10.0979 19.1416 10.062C19.0708 10.0198 18.9896 9.9984 18.9073 10.0001H18.9063ZM18.9063 11.2695L19.0048 11.4232C19.0303 11.4612 19.0566 11.4987 19.0835 11.5357C19.0957 11.5535 19.1069 11.5704 19.1219 11.5892C19.1379 11.6088 19.1304 11.6201 19.2269 11.6904C19.3235 11.7607 19.3319 11.7513 19.3544 11.7598C19.3779 11.7692 19.3976 11.7738 19.4173 11.7795C19.5202 11.8096 19.6233 11.8389 19.7266 11.8676L19.6094 12.012C19.5683 12.0646 19.5286 12.1184 19.4904 12.1732C19.4763 12.1938 19.4613 12.192 19.4248 12.3054C19.3873 12.4179 19.4004 12.4235 19.3985 12.4479V12.5126C19.3985 12.5538 19.4004 12.5988 19.4023 12.6495L19.4098 12.8341L19.2373 12.7685C19.1904 12.7507 19.1491 12.7376 19.1098 12.7245C19.0901 12.7179 19.0713 12.7095 19.0469 12.7029C19.0235 12.6963 19.0216 12.6832 18.9026 12.6823C18.9026 12.6829 18.9026 12.6835 18.9026 12.6841C18.7844 12.6841 18.7816 12.6963 18.7582 12.7029C18.7338 12.7095 18.7169 12.716 18.6973 12.7226C18.6579 12.7357 18.6148 12.7507 18.5679 12.7695C18.5163 12.7882 18.4526 12.8116 18.3935 12.8351L18.4029 12.6495L18.4085 12.5126V12.447C18.4076 12.4216 18.4216 12.417 18.3841 12.3035C18.3476 12.191 18.3326 12.192 18.3185 12.1723L18.2801 12.1188C18.2533 12.0823 18.2258 12.0464 18.1976 12.011C18.1648 11.9679 18.1216 11.9173 18.0823 11.8676L18.2613 11.8179C18.311 11.8048 18.3541 11.7926 18.3935 11.7804L18.4545 11.7579C18.477 11.7485 18.4873 11.7607 18.5838 11.6904C18.6804 11.6201 18.671 11.6088 18.6869 11.5892C18.7276 11.5347 18.7667 11.479 18.8041 11.4223L18.9063 11.2695ZM18.9026 13.646L18.9119 13.6498L19.2307 13.7698C19.3479 13.8148 19.4651 13.8588 19.5691 13.8926L19.6057 13.9038L23.1232 19.3751H14.6857C14.6851 19.3751 14.6845 19.3751 14.6838 19.3751L18.2032 13.9001L18.236 13.8907C18.3391 13.857 18.4573 13.8148 18.5744 13.7698C18.6926 13.7257 18.8069 13.6798 18.8932 13.6479C18.8969 13.647 18.8988 13.6479 18.9026 13.646ZM18.1395 15.8669C18.0151 15.8669 17.8959 15.9163 17.808 16.0042C17.7201 16.0922 17.6707 16.2114 17.6707 16.3357C17.6707 16.46 17.7201 16.5792 17.808 16.6672C17.8959 16.7551 18.0151 16.8044 18.1395 16.8044C18.2638 16.8044 18.383 16.7551 18.4709 16.6672C18.5588 16.5792 18.6082 16.46 18.6082 16.3357C18.6082 16.2114 18.5588 16.0922 18.4709 16.0042C18.383 15.9163 18.2638 15.8669 18.1395 15.8669ZM20.7794 17.5001C20.6551 17.5001 20.5359 17.5495 20.448 17.6374C20.3601 17.7253 20.3107 17.8445 20.3107 17.9688C20.3107 18.0931 20.3601 18.2124 20.448 18.3003C20.5359 18.3882 20.6551 18.4376 20.7794 18.4376C20.9038 18.4376 21.023 18.3882 21.1109 18.3003C21.1988 18.2124 21.2482 18.0931 21.2482 17.9688C21.2482 17.8445 21.1988 17.7253 21.1109 17.6374C21.023 17.5495 20.9038 17.5001 20.7794 17.5001ZM16.271 20.3126H21.536L24.9729 25.6563C24.9894 25.6849 24.998 25.7173 24.998 25.7502C24.998 25.7832 24.9892 25.8156 24.9727 25.8441C24.9561 25.8726 24.9324 25.8963 24.9038 25.9127C24.8751 25.9291 24.8427 25.9377 24.8097 25.9375H12.9963C12.9634 25.938 12.9309 25.9295 12.9023 25.913C12.8738 25.8965 12.8502 25.8726 12.8342 25.8438C12.818 25.8151 12.8096 25.7827 12.81 25.7498C12.8103 25.7169 12.8193 25.6846 12.836 25.6563L16.271 20.3126ZM17.0295 21.2501C16.9051 21.2501 16.7859 21.2994 16.698 21.3874C16.6101 21.4753 16.5607 21.5945 16.5607 21.7188C16.5607 21.8431 16.6101 21.9624 16.698 22.0503C16.7859 22.1382 16.9051 22.1876 17.0295 22.1876C17.1538 22.1876 17.273 22.1382 17.3609 22.0503C17.4488 21.9624 17.4982 21.8431 17.4982 21.7188C17.4982 21.5945 17.4488 21.4753 17.3609 21.3874C17.273 21.2994 17.1538 21.2501 17.0295 21.2501ZM19.3732 23.1251C19.2489 23.1251 19.1296 23.1744 19.0417 23.2623C18.9538 23.3503 18.9044 23.4695 18.9044 23.5938C18.9044 23.7181 18.9538 23.8373 19.0417 23.9253C19.1296 24.0132 19.2489 24.0625 19.3732 24.0625C19.4348 24.0625 19.4957 24.0504 19.5526 24.0269C19.6095 24.0033 19.6611 23.9688 19.7047 23.9253C19.7482 23.8817 19.7827 23.8301 19.8063 23.7732C19.8298 23.7163 19.8419 23.6554 19.8419 23.5938C19.8419 23.4695 19.7926 23.3503 19.7047 23.2623C19.6167 23.1744 19.4975 23.1251 19.3732 23.1251ZM15.1545 24.0625C15.0301 24.0625 14.9109 24.1119 14.823 24.1998C14.7351 24.2877 14.6857 24.407 14.6857 24.5313C14.6857 24.6556 14.7351 24.7748 14.823 24.8628C14.9109 24.9507 15.0301 25 15.1545 25C15.2788 25 15.398 24.9507 15.4859 24.8628C15.5738 24.7748 15.6232 24.6556 15.6232 24.5313C15.6232 24.407 15.5738 24.2877 15.4859 24.1998C15.398 24.1119 15.2788 24.0625 15.1545 24.0625ZM22.6544 24.0625C22.5301 24.0625 22.4109 24.1119 22.323 24.1998C22.2351 24.2877 22.1857 24.407 22.1857 24.5313C22.1857 24.6556 22.2351 24.7748 22.323 24.8628C22.4109 24.9507 22.5301 25 22.6544 25C22.7788 25 22.898 24.9507 22.9859 24.8628C23.0738 24.7748 23.1232 24.6556 23.1232 24.5313C23.1232 24.407 23.0738 24.2877 22.9859 24.1998C22.898 24.1119 22.7788 24.0625 22.6544 24.0625ZM14.2404 26.875H23.5666L26.8216 31.9375C26.8551 31.9943 26.8729 32.059 26.8732 32.1249C26.8736 32.1909 26.8565 32.2557 26.8236 32.3129C26.7907 32.3701 26.7433 32.4175 26.6861 32.4504C26.629 32.4832 26.5641 32.5004 26.4982 32.5H11.3107C11.2447 32.4999 11.1799 32.4825 11.1228 32.4494C11.0657 32.4163 11.0183 32.3688 10.9854 32.3116C10.9526 32.2554 10.9354 32.1915 10.9354 32.1264C10.9354 32.0614 10.9526 31.9975 10.9854 31.9413V31.9375L14.2404 26.875ZM16.092 27.8125C15.9676 27.8125 15.8484 27.8619 15.7605 27.9498C15.6726 28.0377 15.6232 28.157 15.6232 28.2813C15.6232 28.4056 15.6726 28.5248 15.7605 28.6127C15.8484 28.7006 15.9676 28.75 16.092 28.75C16.2163 28.75 16.3355 28.7006 16.4234 28.6127C16.5113 28.5248 16.5607 28.4056 16.5607 28.2813C16.5607 28.157 16.5113 28.0377 16.4234 27.9498C16.3355 27.8619 16.2163 27.8125 16.092 27.8125ZM22.6544 28.75C22.5301 28.75 22.4109 28.7994 22.323 28.8873C22.2351 28.9752 22.1857 29.0945 22.1857 29.2188C22.1857 29.3431 22.2351 29.4623 22.323 29.5502C22.4109 29.6381 22.5301 29.6875 22.6544 29.6875C22.7788 29.6875 22.898 29.6381 22.9859 29.5502C23.0738 29.4623 23.1232 29.3431 23.1232 29.2188C23.1232 29.0945 23.0738 28.9752 22.9859 28.8873C22.898 28.7994 22.7788 28.75 22.6544 28.75ZM18.9044 29.6875C18.7801 29.6875 18.6609 29.7369 18.573 29.8248C18.4851 29.9127 18.4357 30.032 18.4357 30.1563C18.4357 30.2806 18.4851 30.3998 18.573 30.4877C18.6609 30.5756 18.7801 30.625 18.9044 30.625C19.0288 30.625 19.148 30.5756 19.2359 30.4877C19.3238 30.3998 19.3732 30.2806 19.3732 30.1563C19.3732 30.032 19.3238 29.9127 19.2359 29.8248C19.148 29.7369 19.0288 29.6875 18.9044 29.6875ZM13.2795 30.625C13.1551 30.625 13.0359 30.6744 12.948 30.7623C12.8601 30.8502 12.8107 30.9695 12.8107 31.0938C12.8107 31.2181 12.8601 31.3373 12.948 31.4252C13.0359 31.5131 13.1551 31.5625 13.2795 31.5625C13.4038 31.5625 13.523 31.5131 13.6109 31.4252C13.6988 31.3373 13.7482 31.2181 13.7482 31.0938C13.7482 30.9695 13.6988 30.8502 13.6109 30.7623C13.523 30.6744 13.4038 30.625 13.2795 30.625ZM24.5294 30.625C24.4051 30.625 24.2859 30.6744 24.198 30.7623C24.1101 30.8502 24.0607 30.9695 24.0607 31.0938C24.0607 31.2181 24.1101 31.3373 24.198 31.4252C24.2859 31.5131 24.4051 31.5625 24.5294 31.5625C24.6538 31.5625 24.773 31.5131 24.8609 31.4252C24.9488 31.3373 24.9982 31.2181 24.9982 31.0938C24.9982 30.9695 24.9488 30.8502 24.8609 30.7623C24.773 30.6744 24.6538 30.625 24.5294 30.625ZM17.4982 33.4375H20.3107V39.0625H17.4982V33.4375Z" fill="white" fill-opacity="0.6" shape-rendering="crispEdges"/>
</g>
<g filter="url(#filter1_f_34_1137)">
<circle cx="30.5" cy="24.5" r="0.5" fill="#D9D9D9" fill-opacity="0.5"/>
</g>
<g filter="url(#filter2_f_34_1137)">
<circle cx="26.25" cy="21.25" r="0.25" fill="#D9D9D9" fill-opacity="0.5"/>
</g>
<g filter="url(#filter3_f_34_1137)">
<circle cx="28.5" cy="16.5" r="0.5" fill="#D9D9D9" fill-opacity="0.5"/>
</g>
<g filter="url(#filter4_f_34_1137)">
<circle cx="24.35" cy="13.35" r="0.35" fill="#D9D9D9" fill-opacity="0.5"/>
</g>
<g filter="url(#filter5_f_34_1137)">
<circle cx="23.5" cy="9.5" r="0.5" fill="#D9D9D9" fill-opacity="0.5"/>
</g>
<g filter="url(#filter6_f_34_1137)">
<circle cx="16.25" cy="9.25" r="0.25" fill="#D9D9D9" fill-opacity="0.5"/>
</g>
<g filter="url(#filter7_f_34_1137)">
<circle cx="15.5" cy="13.5" r="0.5" fill="#D9D9D9" fill-opacity="0.5"/>
</g>
<g filter="url(#filter8_f_34_1137)">
<circle cx="23.25" cy="35.25" r="0.25" fill="#D9D9D9" fill-opacity="0.5"/>
</g>
<g filter="url(#filter9_f_34_1137)">
<circle cx="27.5" cy="37.5" r="0.5" fill="#D9D9D9" fill-opacity="0.5"/>
</g>
<g filter="url(#filter10_f_34_1137)">
<circle cx="32.35" cy="34.35" r="0.35" fill="#D9D9D9" fill-opacity="0.5"/>
</g>
<g filter="url(#filter11_f_34_1137)">
<circle cx="20.4" cy="9.4" r="0.4" fill="#D4A017"/>
</g>
<g filter="url(#filter12_f_34_1137)">
<circle cx="25.25" cy="16.25" r="0.25" fill="#D4A017"/>
</g>
<g filter="url(#filter13_f_34_1137)">
<circle cx="27.4" cy="11.4" r="0.4" fill="#D4A017"/>
</g>
<g filter="url(#filter14_f_34_1137)">
<circle cx="31.5" cy="19.5" r="0.5" fill="#D4A017"/>
</g>
<g filter="url(#filter15_f_34_1137)">
<circle cx="27.35" cy="25.35" r="0.35" fill="#D4A017"/>
</g>
<g filter="url(#filter16_f_34_1137)">
<circle cx="31.75" cy="29.75" r="0.75" fill="#D4A017" fill-opacity="0.77"/>
</g>
<g filter="url(#filter17_f_34_1137)">
<circle cx="28.5" cy="34.5" r="0.5" fill="#D4A017"/>
</g>
<g filter="url(#filter18_f_34_1137)">
<circle cx="35.4" cy="36.4" r="0.4" fill="#D4A017"/>
</g>
<g filter="url(#filter19_f_34_1137)">
<circle cx="28.5" cy="29.5" r="0.5" fill="#D9D9D9" fill-opacity="0.5"/>
</g>
<defs>
<filter id="filter0_d_34_1137" x="0" y="0" width="37.8083" height="50" filterUnits="userSpaceOnUse" color-interpolation-filters="sRGB">
<feFlood flood-opacity="0" result="BackgroundImageFix"/>
<feColorMatrix in="SourceAlpha" type="matrix" values="0 0 0 0 0 0 0 0 0 0 0 0 0 0 0 0 0 0 127 0" result="hardAlpha"/>
<feOffset/>
<feGaussianBlur stdDeviation="5"/>
<feComposite in2="hardAlpha" operator="out"/>
<feColorMatrix type="matrix" values="0 0 0 0 1 0 0 0 0 1 0 0 0 0 1 0 0 0 1 0"/>
<feBlend mode="normal" in2="BackgroundImageFix" result="effect1_dropShadow_34_1137"/>
<feBlend mode="normal" in="SourceGraphic" in2="effect1_dropShadow_34_1137" result="shape"/>
</filter>
<filter id="filter1_f_34_1137" x="29.5" y="23.5" width="2" height="2" filterUnits="userSpaceOnUse" color-interpolation-filters="sRGB">
<feFlood flood-opacity="0" result="BackgroundImageFix"/>
<feBlend mode="normal" in="SourceGraphic" in2="BackgroundImageFix" result="shape"/>
<feGaussianBlur stdDeviation="0.25" result="effect1_foregroundBlur_34_1137"/>
</filter>
<filter id="filter2_f_34_1137" x="25.5" y="20.5" width="1.5" height="1.5" filterUnits="userSpaceOnUse" color-interpolation-filters="sRGB">
<feFlood flood-opacity="0" result="BackgroundImageFix"/>
<feBlend mode="normal" in="SourceGraphic" in2="BackgroundImageFix" result="shape"/>
<feGaussianBlur stdDeviation="0.25" result="effect1_foregroundBlur_34_1137"/>
</filter>
<filter id="filter3_f_34_1137" x="27.5" y="15.5" width="2" height="2" filterUnits="userSpaceOnUse" color-interpolation-filters="sRGB">
<feFlood flood-opacity="0" result="BackgroundImageFix"/>
<feBlend mode="normal" in="SourceGraphic" in2="BackgroundImageFix" result="shape"/>
<feGaussianBlur stdDeviation="0.25" result="effect1_foregroundBlur_34_1137"/>
</filter>
<filter id="filter4_f_34_1137" x="23.5" y="12.5" width="1.70001" height="1.70001" filterUnits="userSpaceOnUse" color-interpolation-filters="sRGB">
<feFlood flood-opacity="0" result="BackgroundImageFix"/>
<feBlend mode="normal" in="SourceGraphic" in2="BackgroundImageFix" result="shape"/>
<feGaussianBlur stdDeviation="0.25" result="effect1_foregroundBlur_34_1137"/>
</filter>
<filter id="filter5_f_34_1137" x="22.5" y="8.5" width="2" height="2" filterUnits="userSpaceOnUse" color-interpolation-filters="sRGB">
<feFlood flood-opacity="0" result="BackgroundImageFix"/>
<feBlend mode="normal" in="SourceGraphic" in2="BackgroundImageFix" result="shape"/>
<feGaussianBlur stdDeviation="0.25" result="effect1_foregroundBlur_34_1137"/>
</filter>
<filter id="filter6_f_34_1137" x="15.5" y="8.5" width="1.5" height="1.5" filterUnits="userSpaceOnUse" color-interpolation-filters="sRGB">
<feFlood flood-opacity="0" result="BackgroundImageFix"/>
<feBlend mode="normal" in="SourceGraphic" in2="BackgroundImageFix" result="shape"/>
<feGaussianBlur stdDeviation="0.25" result="effect1_foregroundBlur_34_1137"/>
</filter>
<filter id="filter7_f_34_1137" x="14.5" y="12.5" width="2" height="2" filterUnits="userSpaceOnUse" color-interpolation-filters="sRGB">
<feFlood flood-opacity="0" result="BackgroundImageFix"/>
<feBlend mode="normal" in="SourceGraphic" in2="BackgroundImageFix" result="shape"/>
<feGaussianBlur stdDeviation="0.25" result="effect1_foregroundBlur_34_1137"/>
</filter>
<filter id="filter8_f_34_1137" x="22.5" y="34.5" width="1.5" height="1.5" filterUnits="userSpaceOnUse" color-interpolation-filters="sRGB">
<feFlood flood-opacity="0" result="BackgroundImageFix"/>
<feBlend mode="normal" in="SourceGraphic" in2="BackgroundImageFix" result="shape"/>
<feGaussianBlur stdDeviation="0.25" result="effect1_foregroundBlur_34_1137"/>
</filter>
<filter id="filter9_f_34_1137" x="26.5" y="36.5" width="2" height="2" filterUnits="userSpaceOnUse" color-interpolation-filters="sRGB">
<feFlood flood-opacity="0" result="BackgroundImageFix"/>
<feBlend mode="normal" in="SourceGraphic" in2="BackgroundImageFix" result="shape"/>
<feGaussianBlur stdDeviation="0.25" result="effect1_foregroundBlur_34_1137"/>
</filter>
<filter id="filter10_f_34_1137" x="31.5" y="33.5" width="1.70001" height="1.70001" filterUnits="userSpaceOnUse" color-interpolation-filters="sRGB">
<feFlood flood-opacity="0" result="BackgroundImageFix"/>
<feBlend mode="normal" in="SourceGraphic" in2="BackgroundImageFix" result="shape"/>
<feGaussianBlur stdDeviation="0.25" result="effect1_foregroundBlur_34_1137"/>
</filter>
<filter id="filter11_f_34_1137" x="19" y="8" width="2.79999" height="2.79999" filterUnits="userSpaceOnUse" color-interpolation-filters="sRGB">
<feFlood flood-opacity="0" result="BackgroundImageFix"/>
<feBlend mode="normal" in="SourceGraphic" in2="BackgroundImageFix" result="shape"/>
<feGaussianBlur stdDeviation="0.5" result="effect1_foregroundBlur_34_1137"/>
</filter>
<filter id="filter12_f_34_1137" x="24.3" y="15.3" width="1.9" height="1.9" filterUnits="userSpaceOnUse" color-interpolation-filters="sRGB">
<feFlood flood-opacity="0" result="BackgroundImageFix"/>
<feBlend mode="normal" in="SourceGraphic" in2="BackgroundImageFix" result="shape"/>
<feGaussianBlur stdDeviation="0.35" result="effect1_foregroundBlur_34_1137"/>
</filter>
<filter id="filter13_f_34_1137" x="26" y="10" width="2.79999" height="2.79999" filterUnits="userSpaceOnUse" color-interpolation-filters="sRGB">
<feFlood flood-opacity="0" result="BackgroundImageFix"/>
<feBlend mode="normal" in="SourceGraphic" in2="BackgroundImageFix" result="shape"/>
<feGaussianBlur stdDeviation="0.5" result="effect1_foregroundBlur_34_1137"/>
</filter>
<filter id="filter14_f_34_1137" x="30" y="18" width="3" height="3" filterUnits="userSpaceOnUse" color-interpolation-filters="sRGB">
<feFlood flood-opacity="0" result="BackgroundImageFix"/>
<feBlend mode="normal" in="SourceGraphic" in2="BackgroundImageFix" result="shape"/>
<feGaussianBlur stdDeviation="0.5" result="effect1_foregroundBlur_34_1137"/>
</filter>
<filter id="filter15_f_34_1137" x="26" y="24" width="2.70001" height="2.70001" filterUnits="userSpaceOnUse" color-interpolation-filters="sRGB">
<feFlood flood-opacity="0" result="BackgroundImageFix"/>
<feBlend mode="normal" in="SourceGraphic" in2="BackgroundImageFix" result="shape"/>
<feGaussianBlur stdDeviation="0.5" result="effect1_foregroundBlur_34_1137"/>
</filter>
<filter id="filter16_f_34_1137" x="30" y="28" width="3.5" height="3.5" filterUnits="userSpaceOnUse" color-interpolation-filters="sRGB">
<feFlood flood-opacity="0" result="BackgroundImageFix"/>
<feBlend mode="normal" in="SourceGraphic" in2="BackgroundImageFix" result="shape"/>
<feGaussianBlur stdDeviation="0.5" result="effect1_foregroundBlur_34_1137"/>
</filter>
<filter id="filter17_f_34_1137" x="27" y="33" width="3" height="3" filterUnits="userSpaceOnUse" color-interpolation-filters="sRGB">
<feFlood flood-opacity="0" result="BackgroundImageFix"/>
<feBlend mode="normal" in="SourceGraphic" in2="BackgroundImageFix" result="shape"/>
<feGaussianBlur stdDeviation="0.5" result="effect1_foregroundBlur_34_1137"/>
</filter>
<filter id="filter18_f_34_1137" x="34" y="35" width="2.79999" height="2.79999" filterUnits="userSpaceOnUse" color-interpolation-filters="sRGB">
<feFlood flood-opacity="0" result="BackgroundImageFix"/>
<feBlend mode="normal" in="SourceGraphic" in2="BackgroundImageFix" result="shape"/>
<feGaussianBlur stdDeviation="0.5" result="effect1_foregroundBlur_34_1137"/>
</filter>
<filter id="filter19_f_34_1137" x="27.5" y="28.5" width="2" height="2" filterUnits="userSpaceOnUse" color-interpolation-filters="sRGB">
<feFlood flood-opacity="0" result="BackgroundImageFix"/>
<feBlend mode="normal" in="SourceGraphic" in2="BackgroundImageFix" result="shape"/>
<feGaussianBlur stdDeviation="0.25" result="effect1_foregroundBlur_34_1137"/>
</filter>
</defs>
</svg>
