<svg width="29" height="24" viewBox="0 0 29 24" fill="none" xmlns="http://www.w3.org/2000/svg">
<g opacity="0.9" filter="url(#filter0_d_27_999)">
<path d="M13.3194 13.9425C12.6015 14.3753 11.6657 14.1435 11.2329 13.4257C10.8559 12.8005 10.9429 11.9257 11.6834 11.3899C12.3601 10.9043 13.3731 11.0877 13.8363 11.856C14.2691 12.5738 14.0372 13.5098 13.3194 13.9425Z" fill="url(#paint0_linear_27_999)"/>
<path d="M14.6215 11.721C14.489 11.8009 14.349 11.8578 14.2062 11.8935C13.9803 11.3888 13.5596 11.0374 13.0583 10.8878C13.1583 10.3827 13.0506 9.84689 12.7067 9.40635C12.8059 9.29516 12.9206 9.19687 13.0519 9.1177C13.7697 8.68491 14.7055 8.91674 15.1383 9.63458C15.571 10.3523 15.3392 11.2882 14.6215 11.721Z" fill="url(#paint1_linear_27_999)"/>
<path d="M10.4788 9.23208C11.5989 8.55681 13.006 9.53022 12.7533 10.8239C12.348 10.7747 11.93 10.856 11.5531 11.0953C11.309 11.2265 10.9829 11.5742 10.8255 11.9864C10.477 11.8819 10.1643 11.6542 9.96199 11.3185C9.52935 10.6007 9.76122 9.66472 10.4788 9.23208Z" fill="url(#paint2_linear_27_999)"/>
<path d="M18.9295 5.21603C19.8021 6.01876 20.8475 5.9528 21.5728 5.75531C21.0595 6.30433 20.5132 7.1979 20.8158 8.34458C20.4523 8.46894 19.5473 8.86481 18.9661 9.82767C18.797 9.67758 18.6329 9.50003 18.4795 9.28855C18.4169 9.20278 18.2871 9.20192 18.2251 9.29062C18.2153 9.30451 17.2781 10.6086 15.6667 10.3999C15.6643 10.1326 15.6041 9.86333 15.4799 9.6111L19.0034 7.48682C19.0773 7.44224 19.1011 7.34626 19.0565 7.27234C19.0119 7.1984 18.9159 7.17462 18.842 7.21921L15.3185 9.3435C15.1543 9.11704 14.9456 8.93876 14.7117 8.81197C15.2739 7.29738 16.8145 7.07445 16.8838 7.0655C16.9906 7.05126 17.0512 6.93678 17.0041 6.84141C16.8882 6.60615 16.8072 6.37792 16.7527 6.15839C17.8762 6.09434 18.6497 5.47917 18.9295 5.21603Z" fill="url(#paint3_radial_27_999)"/>
<path d="M11.8668 7.98793C12.5507 6.54752 11.8587 5.30643 11.5565 4.86998C13.0911 4.1481 13.4323 2.72734 13.505 2.24526C14.6872 2.33753 15.4684 1.63999 15.9168 1.03669C15.8522 1.78552 15.9748 2.82565 16.921 3.54036C16.6562 3.94952 15.9703 5.23945 16.6395 6.79704C16.1529 6.91659 14.9339 7.34795 14.4256 8.68594C14.026 8.55055 13.5828 8.55382 13.1734 8.71316L14.9658 3.98544C14.9963 3.90481 14.9558 3.8146 14.875 3.78388C14.7946 3.75375 14.7041 3.79421 14.6735 3.87466L12.752 8.94268C12.6576 9.01223 12.5712 9.09042 12.4928 9.1754C12.4242 9.11343 12.3509 9.05847 12.2748 9.00823C12.1523 8.4937 11.9604 8.13867 11.8668 7.98793Z" fill="url(#paint4_linear_27_999)"/>
<path d="M20.911 14.5284C20.4504 14.3681 19.0349 14.0061 17.6801 15.0263C17.4687 14.6197 16.8627 13.6765 15.6759 13.3825C15.488 13.3359 15.2853 13.3057 15.0675 13.2964C14.9779 13.1433 14.7532 12.8081 14.3558 12.4597C14.3469 12.3688 14.3326 12.2781 14.3097 12.1883C14.4204 12.159 14.5295 12.119 14.6357 12.0678L20.0154 12.7345C20.1012 12.7451 20.1791 12.6842 20.1898 12.5986C20.2003 12.5132 20.1401 12.4354 20.0539 12.4243L15.036 11.8024C15.3682 11.5146 15.5781 11.1239 15.6447 10.7072C17.065 10.882 18.0158 10.0062 18.3486 9.63174C19.4138 10.9505 20.8744 10.9462 21.3602 10.903C21.5506 12.0734 22.4132 12.6674 23.1056 12.96C22.3628 13.0747 21.3812 13.4399 20.911 14.5284Z" fill="url(#paint5_linear_27_999)"/>
<path fill-rule="evenodd" clip-rule="evenodd" d="M24.0599 12.9156C23.9699 12.904 21.852 12.6159 21.6499 10.7125C21.64 10.6203 21.5534 10.5582 21.4648 10.5756C21.4502 10.5786 20.2778 10.7922 19.209 10.0223C19.8596 8.89486 20.9859 8.61473 21.0448 8.60096C21.1337 8.58029 21.1863 8.48751 21.1581 8.40058C20.5678 6.57989 22.3848 5.45445 22.4625 5.40736C22.5361 5.3627 22.5547 5.25804 22.5102 5.18433C22.4656 5.11039 22.3696 5.08661 22.2957 5.1312C22.2739 5.14403 20.3764 6.26172 19.0398 4.88729C18.976 4.82198 18.8697 4.8248 18.8097 4.89397C18.7701 4.93942 17.9936 5.79633 16.6921 5.84723C16.51 4.56117 17.2217 3.64772 17.2594 3.6006C17.317 3.52865 17.3 3.42343 17.2247 3.37318C15.6357 2.30587 16.3693 0.29846 16.4013 0.213494C16.4316 0.132966 16.3818 0.0395268 16.3015 0.00877442C16.2184 -0.0222348 16.1299 0.0199124 16.0996 0.0992967C16.0918 0.120005 15.2899 2.17385 13.3884 1.91866C13.299 1.90657 13.2159 1.97339 13.2116 2.06634C13.2106 2.08464 13.1053 3.90561 11.2541 4.66145C11.1549 4.70201 11.1249 4.82847 11.1958 4.90924C11.2077 4.92287 12.3815 6.28975 11.5478 7.9284C11.5214 7.98049 11.5263 8.04316 11.5604 8.09062C11.5646 8.09655 11.745 8.35897 11.8898 8.81326C11.3872 8.63089 10.8098 8.66756 10.3175 8.96445C9.45222 9.486 9.17266 10.6145 9.69439 11.4798C9.93907 11.8856 10.3177 12.1606 10.7397 12.2866C10.6543 12.7183 10.7207 13.1813 10.9653 13.587C11.4871 14.4525 12.6154 14.7319 13.4807 14.2102C13.9733 13.9132 14.2752 13.4196 14.3485 12.8899C14.6822 13.2295 14.8295 13.5112 14.8337 13.5194C14.8596 13.5719 14.9129 13.6048 14.9712 13.6063C16.8032 13.6338 17.4505 15.258 17.4771 15.3272C17.5163 15.4284 17.6423 15.4589 17.7234 15.391C19.2511 14.111 20.8648 14.8399 20.9326 14.8716C21.0175 14.9106 21.1146 14.8681 21.1455 14.7839C21.8059 12.9876 23.9302 13.2247 24.0202 13.2357C24.0959 13.245 24.1843 13.1849 24.1956 13.0894C24.2059 13.004 24.1457 12.9257 24.0599 12.9156ZM21.5728 5.75531C20.8475 5.9528 19.8021 6.01876 18.9295 5.21603C18.6497 5.47917 17.8762 6.09434 16.7527 6.15839C16.8072 6.37792 16.8882 6.60615 17.0041 6.84141C17.0512 6.93678 16.9906 7.05126 16.8838 7.0655C16.8145 7.07445 15.2739 7.29738 14.7117 8.81197C14.9456 8.93876 15.1543 9.11704 15.3185 9.3435L18.842 7.21921C18.9159 7.17462 19.0119 7.1984 19.0565 7.27234C19.1011 7.34626 19.0773 7.44224 19.0034 7.48682L15.4799 9.6111C15.6041 9.86333 15.6643 10.1326 15.6667 10.3999C17.2781 10.6086 18.2153 9.30451 18.2251 9.29062C18.2871 9.20192 18.4169 9.20278 18.4795 9.28855C18.6329 9.50003 18.797 9.67758 18.9661 9.82767C19.5473 8.86481 20.4523 8.46894 20.8158 8.34458C20.5132 7.1979 21.0595 6.30433 21.5728 5.75531ZM14.2062 11.8935C14.349 11.8578 14.489 11.8009 14.6215 11.721C15.3392 11.2882 15.571 10.3523 15.1383 9.63458C14.7055 8.91674 13.7697 8.68491 13.0519 9.1177C12.9206 9.19687 12.8059 9.29516 12.7067 9.40635C13.0506 9.84689 13.1583 10.3827 13.0583 10.8878C13.5596 11.0374 13.9803 11.3888 14.2062 11.8935ZM11.5565 4.86998C11.8587 5.30643 12.5507 6.54752 11.8668 7.98793C11.9604 8.13867 12.1523 8.4937 12.2748 9.00823C12.3509 9.05847 12.4242 9.11343 12.4928 9.1754C12.5712 9.09042 12.6576 9.01223 12.752 8.94268L14.6735 3.87466C14.7041 3.79421 14.7946 3.75375 14.875 3.78388C14.9558 3.8146 14.9963 3.90481 14.9658 3.98544L13.1734 8.71316C13.5828 8.55382 14.026 8.55055 14.4256 8.68594C14.9339 7.34795 16.1529 6.91659 16.6395 6.79704C15.9703 5.23945 16.6562 3.94952 16.921 3.54036C15.9748 2.82565 15.8522 1.78552 15.9168 1.03669C15.4684 1.63999 14.6872 2.33753 13.505 2.24526C13.4323 2.72734 13.0911 4.1481 11.5565 4.86998ZM12.7533 10.8239C13.006 9.53022 11.5989 8.55681 10.4788 9.23208C9.76122 9.66472 9.52935 10.6007 9.96199 11.3185C10.1643 11.6542 10.477 11.8819 10.8255 11.9864C10.9829 11.5742 11.309 11.2265 11.5531 11.0953C11.93 10.856 12.348 10.7747 12.7533 10.8239ZM11.2329 13.4257C11.6657 14.1435 12.6015 14.3753 13.3194 13.9425C14.0372 13.5098 14.2691 12.5738 13.8363 11.856C13.3731 11.0877 12.3601 10.9043 11.6834 11.3899C10.9429 11.9257 10.8559 12.8005 11.2329 13.4257ZM17.6801 15.0263C19.0349 14.0061 20.4504 14.3681 20.911 14.5284C21.3812 13.4399 22.3628 13.0747 23.1056 12.96C22.4132 12.6674 21.5506 12.0734 21.3602 10.903C20.8744 10.9462 19.4138 10.9505 18.3486 9.63174C18.0158 10.0062 17.065 10.882 15.6447 10.7072C15.5781 11.1239 15.3682 11.5146 15.036 11.8024L20.0539 12.4243C20.1401 12.4354 20.2003 12.5132 20.1898 12.5986C20.1791 12.6842 20.1012 12.7451 20.0154 12.7345L14.6357 12.0678C14.5295 12.119 14.4204 12.159 14.3097 12.1883C14.3326 12.2781 14.3469 12.3688 14.3558 12.4597C14.7532 12.8081 14.9779 13.1433 15.0675 13.2964C15.2853 13.3057 15.488 13.3359 15.6759 13.3825C16.8627 13.6765 17.4687 14.6197 17.6801 15.0263Z" fill="#D6D6D6"/>
</g>
<g opacity="0.9" filter="url(#filter1_d_27_999)">
<path d="M15.217 14.9803C14.6645 15.0022 14.1974 14.5707 14.1756 14.0182C14.1565 13.5371 14.485 13.0592 15.0832 12.9851C15.6287 12.9195 16.1558 13.3476 16.1791 13.9389C16.201 14.4913 15.7694 14.9585 15.217 14.9803Z" fill="#FF4C4C" fill-opacity="0.5"/>
<path d="M15.217 14.9803C14.6645 15.0022 14.1974 14.5707 14.1756 14.0182C14.1565 13.5371 14.485 13.0592 15.0832 12.9851C15.6287 12.9195 16.1558 13.3476 16.1791 13.9389C16.201 14.4913 15.7694 14.9585 15.217 14.9803Z" fill="url(#paint6_linear_27_999)"/>
<path d="M16.6758 14.1105C16.5739 14.1146 16.4749 14.103 16.381 14.0782C16.4109 13.7146 16.2796 13.3778 16.0374 13.132C16.2558 12.8719 16.3639 12.528 16.3053 12.1641C16.398 12.1314 16.4955 12.1111 16.5965 12.107C17.149 12.0852 17.6161 12.5167 17.6379 13.0691C17.6598 13.6215 17.2282 14.0886 16.6758 14.1105Z" fill="url(#paint7_linear_27_999)"/>
<path d="M15.0733 11.355C15.9352 11.3209 16.4389 12.3308 15.8815 12.9981C15.663 12.8408 15.3955 12.7549 15.1016 12.7733C14.9188 12.7715 14.6198 12.8688 14.3978 13.057C14.2297 12.8857 14.1214 12.6548 14.1112 12.3964C14.0894 11.8441 14.521 11.3769 15.0733 11.355Z" fill="url(#paint8_linear_27_999)"/>
<path d="M21.2337 11.7211C21.4827 12.4624 22.1079 12.7567 22.5898 12.8732C22.1186 13.0272 21.5187 13.3699 21.329 14.1288C21.0794 14.0851 20.4305 14.0261 19.7886 14.3978C19.7385 14.2572 19.7002 14.1025 19.6788 13.9315C19.6699 13.862 19.5951 13.8203 19.5311 13.8518C19.521 13.8567 18.5647 14.3124 17.6999 13.6794C17.7835 13.5241 17.8343 13.3494 17.8428 13.1642L20.5544 13.0568C20.6113 13.0546 20.6556 13.0067 20.6533 12.9498C20.651 12.8929 20.6031 12.8486 20.5462 12.8509L17.8346 12.9582C17.8117 12.7751 17.7478 12.6057 17.653 12.4581C18.4594 11.7616 19.4206 12.1226 19.4635 12.1394C19.5298 12.1652 19.6012 12.1183 19.6042 12.0482C19.6121 11.8754 19.6378 11.7177 19.6761 11.5735C20.3458 11.8937 20.9884 11.7842 21.2337 11.7211Z" fill="url(#paint9_radial_27_999)"/>
<path d="M16.271 11.0774C17.1242 10.4624 17.1189 9.52516 17.083 9.17684C18.1994 9.24761 18.8483 8.53502 19.0436 8.27956C19.6975 8.70876 20.3707 8.55405 20.8216 8.34795C20.5462 8.76016 20.2863 9.40023 20.6059 10.1141C20.3227 10.2664 19.5162 10.7937 19.4077 11.9066C19.0885 11.821 18.2469 11.6827 17.5277 12.2943C17.3398 12.089 17.0826 11.95 16.7954 11.9119L19.3345 9.74967C19.3778 9.71278 19.383 9.64776 19.3461 9.60433C19.3092 9.56134 19.2441 9.55595 19.2008 9.5927L16.4789 11.9106C16.4022 11.9207 16.3275 11.9385 16.2551 11.9626C16.2352 11.905 16.2103 11.8499 16.1823 11.7967C16.2751 11.4604 16.2771 11.1942 16.271 11.0774Z" fill="url(#paint10_linear_27_999)"/>
<path d="M19.4177 17.7326C19.2026 17.4936 18.4997 16.8343 17.3924 16.9931C17.3995 16.6909 17.3492 15.9532 16.7569 15.406C16.6631 15.3193 16.5556 15.2373 16.4326 15.1627C16.4296 15.0458 16.4063 14.7806 16.2874 14.453C16.3112 14.3976 16.3317 14.3406 16.3471 14.2814C16.4204 14.2997 16.4961 14.3113 16.5737 14.3155L19.4706 16.4112C19.5168 16.4446 19.5812 16.4342 19.6146 16.3882C19.6478 16.3421 19.6378 16.2781 19.5915 16.2442L16.8895 14.2894C17.173 14.2287 17.4185 14.0696 17.5895 13.85C18.3547 14.4026 19.1826 14.1988 19.494 14.0882C19.6902 15.189 20.5357 15.6509 20.8301 15.7804C20.568 16.5173 20.8776 17.1349 21.1847 17.5241C20.719 17.3541 20.0356 17.2531 19.4177 17.7326Z" fill="url(#paint11_linear_27_999)"/>
<path fill-rule="evenodd" clip-rule="evenodd" d="M21.7503 17.8018C21.7019 17.7665 20.5696 16.9266 21.0581 15.7624C21.0817 15.7059 21.0514 15.6425 20.9946 15.6244C20.9853 15.6215 20.2398 15.3722 19.867 14.5875C20.6015 14.1428 21.3414 14.339 21.3798 14.3498C21.4377 14.3661 21.4977 14.3292 21.509 14.27C21.7468 13.0301 23.1547 12.9575 23.2145 12.9549C23.2713 12.9526 23.3153 12.898 23.313 12.8412C23.3108 12.7843 23.2629 12.7401 23.206 12.7423C23.1893 12.7428 21.7374 12.7854 21.402 11.5662C21.3859 11.5081 21.3236 11.476 21.2669 11.4969C21.2296 11.5105 20.5084 11.7589 19.7401 11.3745C20.0438 10.5733 20.7455 10.2718 20.7823 10.2565C20.8384 10.2333 20.862 10.167 20.8345 10.1141C20.2556 8.99204 21.3179 8.0652 21.3634 8.02629C21.4065 7.9894 21.4075 7.91956 21.3708 7.87627C21.3327 7.83191 21.2681 7.82812 21.2253 7.86436C21.2142 7.87385 20.0978 8.8058 19.0801 8.05375C19.0323 8.01835 18.963 8.03054 18.931 8.08287C18.9246 8.09315 18.2847 9.11197 16.9746 8.96019C16.9044 8.95208 16.8468 9.01563 16.8621 9.08487C16.8647 9.09651 17.1084 10.2596 16.1055 10.9415C16.0737 10.9632 16.0566 11.001 16.0613 11.0393C16.0618 11.0441 16.0826 11.2531 16.0218 11.5616C15.7894 11.2964 15.444 11.134 15.0651 11.1491C14.3993 11.1754 13.8789 11.7386 13.9052 12.4046C13.9176 12.7169 14.049 12.9962 14.2527 13.2032C14.0661 13.4255 13.9573 13.7142 13.9696 14.0264C13.996 14.6925 14.5592 15.2127 15.2251 15.1863C15.6042 15.1713 15.9356 14.9821 16.1464 14.6992C16.2313 15.0016 16.2268 15.2112 16.2266 15.2172C16.2249 15.2559 16.2452 15.2919 16.2785 15.3112C17.3284 15.9096 17.186 17.0541 17.1794 17.1025C17.1698 17.1734 17.233 17.2311 17.3014 17.2177C18.5912 16.9637 19.292 17.898 19.3211 17.9378C19.3578 17.9874 19.4274 17.9937 19.472 17.9549C20.4248 17.1268 21.577 17.9392 21.6256 17.9742C21.6664 18.0036 21.7365 17.997 21.7734 17.9454C21.8066 17.8993 21.7967 17.8349 21.7503 17.8018ZM22.5898 12.8732C22.1079 12.7567 21.4827 12.4624 21.2337 11.7211C20.9884 11.7842 20.3458 11.8937 19.6761 11.5735C19.6378 11.7177 19.6121 11.8754 19.6042 12.0482C19.6012 12.1183 19.5298 12.1652 19.4635 12.1394C19.4206 12.1226 18.4594 11.7616 17.653 12.4581C17.7478 12.6057 17.8117 12.7751 17.8346 12.9582L20.5462 12.8509C20.6031 12.8486 20.651 12.8929 20.6533 12.9498C20.6556 13.0067 20.6113 13.0546 20.5544 13.0568L17.8428 13.1642C17.8343 13.3494 17.7835 13.5241 17.6999 13.6794C18.5647 14.3124 19.521 13.8567 19.5311 13.8518C19.5951 13.8203 19.6699 13.862 19.6788 13.9315C19.7002 14.1025 19.7385 14.2572 19.7886 14.3978C20.4305 14.0261 21.0794 14.0851 21.329 14.1288C21.5187 13.3699 22.1186 13.0272 22.5898 12.8732ZM16.381 14.0782C16.4749 14.103 16.5739 14.1146 16.6758 14.1105C17.2282 14.0886 17.6598 13.6215 17.6379 13.0691C17.6161 12.5167 17.149 12.0852 16.5965 12.107C16.4955 12.1111 16.398 12.1314 16.3053 12.1641C16.3639 12.528 16.2558 12.8719 16.0374 13.132C16.2796 13.3778 16.4109 13.7146 16.381 14.0782ZM17.083 9.17684C17.1189 9.52516 17.1242 10.4624 16.271 11.0774C16.2771 11.1942 16.2751 11.4604 16.1823 11.7967C16.2103 11.8499 16.2352 11.905 16.2551 11.9626C16.3275 11.9385 16.4022 11.9207 16.4789 11.9106L19.2008 9.5927C19.2441 9.55595 19.3092 9.56134 19.3461 9.60433C19.383 9.64776 19.3778 9.71278 19.3345 9.74967L16.7954 11.9119C17.0826 11.95 17.3398 12.089 17.5277 12.2943C18.2469 11.6827 19.0885 11.821 19.4077 11.9066C19.5162 10.7937 20.3227 10.2664 20.6059 10.1141C20.2863 9.40023 20.5462 8.76016 20.8216 8.34795C20.3707 8.55405 19.6975 8.70876 19.0436 8.27956C18.8483 8.53502 18.1994 9.24761 17.083 9.17684ZM15.8815 12.9981C16.4389 12.3308 15.9352 11.3209 15.0733 11.355C14.521 11.3769 14.0894 11.8441 14.1112 12.3964C14.1214 12.6548 14.2297 12.8857 14.3978 13.057C14.6198 12.8688 14.9188 12.7715 15.1016 12.7733C15.3955 12.7549 15.663 12.8408 15.8815 12.9981ZM14.1756 14.0182C14.1974 14.5707 14.6645 15.0022 15.217 14.9803C15.7694 14.9585 16.201 14.4913 16.1791 13.9389C16.1558 13.3476 15.6287 12.9195 15.0832 12.9851C14.485 13.0592 14.1565 13.5371 14.1756 14.0182ZM17.3924 16.9931C18.4997 16.8343 19.2026 17.4936 19.4177 17.7326C20.0356 17.2531 20.719 17.3541 21.1847 17.5241C20.8776 17.1349 20.568 16.5173 20.8301 15.7804C20.5357 15.6509 19.6902 15.189 19.494 14.0882C19.1826 14.1988 18.3547 14.4026 17.5895 13.85C17.4185 14.0696 17.173 14.2287 16.8895 14.2894L19.5915 16.2442C19.6378 16.2781 19.6478 16.3421 19.6146 16.3882C19.5812 16.4342 19.5168 16.4446 19.4706 16.4112L16.5737 14.3155C16.4961 14.3113 16.4204 14.2997 16.3471 14.2814C16.3317 14.3406 16.3112 14.3976 16.2874 14.453C16.4063 14.7806 16.4296 15.0458 16.4326 15.1627C16.5556 15.2373 16.6631 15.3193 16.7569 15.406C17.3492 15.9532 17.3995 16.6909 17.3924 16.9931Z" fill="#D6D6D6"/>
</g>
<g opacity="0.9" filter="url(#filter2_d_27_999)">
<path d="M12.2857 7.63351C12.4263 8.16823 12.1057 8.71742 11.571 8.85799C11.1053 8.98041 10.5678 8.76282 10.3663 8.19467C10.1846 7.67621 10.4889 7.06919 11.0612 6.91876C11.5959 6.7782 12.1452 7.09882 12.2857 7.63351Z" fill="url(#paint12_linear_27_999)"/>
<path d="M11.1216 6.39673C11.1475 6.49542 11.1576 6.59458 11.1536 6.69157C10.7922 6.74083 10.4917 6.94176 10.3039 7.23128C10.0028 7.07415 9.64367 7.04278 9.30099 7.17855C9.24905 7.09511 9.20814 7.00426 9.18241 6.9065C9.04185 6.37179 9.3624 5.82259 9.89712 5.68203C10.4318 5.54152 10.981 5.8621 11.1216 6.39673Z" fill="url(#paint13_linear_27_999)"/>
<path d="M8.77685 8.55616C8.55753 7.72186 9.43497 7.01217 10.2068 7.41242C10.1004 7.65974 10.0742 7.93943 10.1556 8.22239C10.1933 8.40128 10.3528 8.67225 10.5845 8.84842C10.4535 9.04957 10.2514 9.20514 10.0013 9.27085C9.46668 9.41132 8.91737 9.0907 8.77685 8.55616Z" fill="url(#paint14_linear_27_999)"/>
<path d="M7.80485 2.46184C8.47498 2.05874 8.62743 1.38484 8.63716 0.88914C8.88929 1.31599 9.35334 1.82776 10.1353 1.84922C10.1465 2.10239 10.2289 2.7487 10.7303 3.29536C10.6039 3.37455 10.4611 3.44541 10.2987 3.50319C10.2328 3.52685 10.2082 3.60885 10.2528 3.66459C10.2598 3.6734 10.9111 4.50878 10.4796 5.48984C10.31 5.44167 10.1284 5.42976 9.94569 5.46153L9.25574 2.83695C9.24126 2.78186 9.18494 2.74899 9.12987 2.76348C9.07479 2.77796 9.04191 2.83428 9.0564 2.88935L9.74635 5.51393C9.57253 5.57579 9.42093 5.67474 9.29724 5.79922C8.44309 5.16207 8.58817 4.14563 8.59538 4.10012C8.60621 4.02985 8.545 3.97026 8.47589 3.98236C8.30547 4.01202 8.14597 4.02089 7.99692 4.01459C8.16508 3.29162 7.91942 2.68782 7.80485 2.46184Z" fill="url(#paint15_radial_27_999)"/>
<path d="M8.24726 7.4466C7.46266 6.74623 6.54865 6.9536 6.21628 7.0638C6.04447 5.95845 5.20864 5.47862 4.91705 5.34304C5.19504 4.612 4.89868 3.98798 4.60014 3.59217C5.06207 3.77215 5.74314 3.88778 6.37125 3.42168C6.581 3.66532 7.26999 4.33901 8.38009 4.20484C8.36537 4.535 8.41194 5.38664 9.16432 5.95691C9.00441 6.18463 8.92416 6.46574 8.94896 6.75442L6.28975 4.74177C6.24439 4.70748 6.17977 4.71637 6.14532 4.76178C6.11132 4.80709 6.12011 4.87187 6.16533 4.90621L9.01594 7.06375C9.04242 7.13646 9.07587 7.20561 9.11508 7.27103C9.06312 7.30293 9.01472 7.33914 8.96879 7.37796C8.62039 7.35989 8.36005 7.41537 8.24726 7.4466Z" fill="url(#paint16_linear_27_999)"/>
<path d="M14.0667 2.93779C13.8796 3.19947 13.3876 4.02809 13.7816 5.07502C13.485 5.13327 12.7755 5.34158 12.369 6.03804C12.3046 6.14836 12.2478 6.271 12.2015 6.40714C12.0879 6.43538 11.8341 6.51532 11.5398 6.70212C11.4805 6.69085 11.4205 6.68307 11.3594 6.68084C11.3615 6.60534 11.3564 6.52886 11.3437 6.45219L12.765 3.1713C12.7876 3.11898 12.7635 3.05835 12.7114 3.03569C12.6593 3.01319 12.5989 3.03681 12.5758 3.0893L11.2501 6.14949C11.1297 5.88581 10.9214 5.68041 10.67 5.56079C11.0445 4.69441 10.6668 3.92999 10.4916 3.64978C11.5241 3.22066 11.7927 2.29545 11.8556 1.97997C12.6317 2.07693 13.1679 1.64131 13.4817 1.25748C13.4163 1.74889 13.4651 2.43794 14.0667 2.93779Z" fill="url(#paint17_linear_27_999)"/>
<path fill-rule="evenodd" clip-rule="evenodd" d="M13.6309 0.645289C13.6068 0.700107 13.0311 1.98696 11.7889 1.76127C11.7286 1.75038 11.6733 1.79366 11.6678 1.85297C11.667 1.86277 11.5844 2.64444 10.8987 3.1778C10.3059 2.5566 10.3379 1.79179 10.3401 1.75194C10.3435 1.69187 10.2946 1.64133 10.2343 1.64299C8.97235 1.67839 8.59757 0.319386 8.5822 0.261459C8.56762 0.206561 8.50482 0.175371 8.44991 0.189835C8.39483 0.204315 8.36195 0.260641 8.37644 0.315706C8.38051 0.331877 8.73544 1.74037 7.61728 2.33097C7.5641 2.35922 7.54613 2.42703 7.57877 2.47785C7.60017 2.51137 7.99828 3.16196 7.78873 3.99513C6.94096 3.87146 6.49506 3.25131 6.47222 3.21874C6.43739 3.1689 6.36763 3.16015 6.32185 3.19845C5.35119 4.00582 4.21697 3.16864 4.16915 3.13259C4.12381 3.09843 4.05543 3.11259 4.02105 3.15768C3.98598 3.20454 3.99621 3.2684 4.04082 3.30233C4.05248 3.31111 5.2034 4.20014 4.68869 5.35615C4.66444 5.41046 4.69129 5.47547 4.74931 5.49549C4.76071 5.49948 5.89362 5.90446 6.02813 7.21644C6.03537 7.28676 6.10984 7.32922 6.17414 7.29933C6.18497 7.29435 7.26809 6.80541 8.15033 7.63745C8.17839 7.66385 8.21896 7.67239 8.25534 7.65959C8.25988 7.65803 8.45947 7.59262 8.77388 7.58538C8.5651 7.86959 8.48106 8.24181 8.57751 8.60854C8.74687 9.25305 9.40917 9.63962 10.0537 9.47018C10.356 9.39072 10.6004 9.20217 10.7585 8.95853C11.0159 9.09277 11.3213 9.13675 11.6234 9.05731C12.2682 8.88783 12.6545 8.22568 12.4851 7.58109C12.3886 7.21421 12.1323 6.93143 11.8107 6.78666C12.0876 6.63855 12.2933 6.59762 12.2992 6.59653C12.3372 6.58984 12.368 6.56224 12.3797 6.52561C12.7374 5.37129 13.8857 5.26335 13.9344 5.25936C14.0057 5.25341 14.0484 5.17929 14.0205 5.11535C13.4942 3.91075 14.2552 3.02486 14.2879 2.98786C14.3283 2.94138 14.3195 2.87201 14.272 2.83684C13.2577 2.08519 13.8024 0.78479 13.8261 0.729851C13.846 0.683647 13.8244 0.61657 13.7661 0.591669C13.7139 0.569289 13.6532 0.592835 13.6309 0.645289ZM8.63716 0.88914C8.62743 1.38484 8.47498 2.05874 7.80485 2.46184C7.91942 2.68782 8.16508 3.29162 7.99692 4.01459C8.14597 4.02089 8.30547 4.01202 8.47589 3.98236C8.545 3.97026 8.60621 4.02985 8.59538 4.10012C8.58817 4.14563 8.44309 5.16207 9.29724 5.79922C9.42093 5.67474 9.57253 5.57579 9.74635 5.51393L9.0564 2.88935C9.04191 2.83428 9.07479 2.77796 9.12987 2.76348C9.18494 2.74899 9.24126 2.78186 9.25574 2.83695L9.94569 5.46153C10.1284 5.42976 10.31 5.44167 10.4796 5.48984C10.9111 4.50878 10.2598 3.6734 10.2528 3.66459C10.2082 3.60885 10.2328 3.52685 10.2987 3.50319C10.4611 3.44541 10.6039 3.37455 10.7303 3.29536C10.2289 2.7487 10.1465 2.10239 10.1353 1.84922C9.35334 1.82776 8.88929 1.31599 8.63716 0.88914ZM11.1536 6.69157C11.1576 6.59458 11.1475 6.49542 11.1216 6.39673C10.981 5.8621 10.4318 5.54152 9.89712 5.68203C9.3624 5.82259 9.04185 6.37179 9.18241 6.9065C9.20814 7.00426 9.24905 7.09511 9.30099 7.17855C9.64367 7.04278 10.0028 7.07415 10.3039 7.23128C10.4917 6.94176 10.7922 6.74083 11.1536 6.69157ZM6.21628 7.0638C6.54865 6.9536 7.46266 6.74623 8.24726 7.4466C8.36005 7.41537 8.62039 7.35989 8.96879 7.37796C9.01472 7.33914 9.06312 7.30293 9.11508 7.27103C9.07587 7.20561 9.04242 7.13646 9.01594 7.06375L6.16533 4.90621C6.12011 4.87187 6.11132 4.80709 6.14532 4.76178C6.17977 4.71637 6.24439 4.70748 6.28975 4.74177L8.94896 6.75442C8.92416 6.46574 9.00441 6.18463 9.16432 5.95691C8.41194 5.38664 8.36537 4.535 8.38009 4.20484C7.26999 4.33901 6.581 3.66532 6.37125 3.42168C5.74314 3.88778 5.06207 3.77215 4.60014 3.59217C4.89868 3.98798 5.19504 4.612 4.91705 5.34304C5.20864 5.47862 6.04447 5.95845 6.21628 7.0638ZM10.2068 7.41242C9.43497 7.01217 8.55753 7.72186 8.77685 8.55616C8.91737 9.0907 9.46668 9.41132 10.0013 9.27085C10.2514 9.20514 10.4535 9.04957 10.5845 8.84842C10.3528 8.67225 10.1933 8.40128 10.1556 8.22239C10.0742 7.93943 10.1004 7.65974 10.2068 7.41242ZM11.571 8.85799C12.1057 8.71742 12.4263 8.16823 12.2857 7.63351C12.1452 7.09882 11.5959 6.7782 11.0612 6.91876C10.4889 7.06919 10.1846 7.67621 10.3663 8.19467C10.5678 8.76282 11.1053 8.98041 11.571 8.85799ZM13.7816 5.07502C13.3876 4.02809 13.8796 3.19947 14.0667 2.93779C13.4651 2.43794 13.4163 1.74889 13.4817 1.25748C13.1679 1.64131 12.6317 2.07693 11.8556 1.97997C11.7927 2.29545 11.5241 3.22066 10.4916 3.64978C10.6668 3.92999 11.0445 4.69441 10.67 5.56079C10.9214 5.68041 11.1297 5.88581 11.2501 6.14949L12.5758 3.0893C12.5989 3.03681 12.6593 3.01319 12.7114 3.03569C12.7635 3.05835 12.7876 3.11898 12.765 3.1713L11.3437 6.45219C11.3564 6.52886 11.3615 6.60534 11.3594 6.68084C11.4205 6.68307 11.4805 6.69085 11.5398 6.70212C11.8341 6.51532 12.0879 6.43538 12.2015 6.40714C12.2478 6.271 12.3046 6.14836 12.369 6.03804C12.7755 5.34158 13.485 5.13327 13.7816 5.07502Z" fill="#D6D6D6"/>
</g>
<defs>
<filter id="filter0_d_27_999" x="5.43164" y="-2.00145" width="22.7651" height="23.4288" filterUnits="userSpaceOnUse" color-interpolation-filters="sRGB">
<feFlood flood-opacity="0" result="BackgroundImageFix"/>
<feColorMatrix in="SourceAlpha" type="matrix" values="0 0 0 0 0 0 0 0 0 0 0 0 0 0 0 0 0 0 127 0" result="hardAlpha"/>
<feOffset dy="2"/>
<feGaussianBlur stdDeviation="2"/>
<feComposite in2="hardAlpha" operator="out"/>
<feColorMatrix type="matrix" values="0 0 0 0 0 0 0 0 0 0 0 0 0 0 0 0 0 0 0.6 0"/>
<feBlend mode="normal" in2="BackgroundImageFix" result="effect1_dropShadow_27_999"/>
<feBlend mode="normal" in="SourceGraphic" in2="effect1_dropShadow_27_999" result="shape"/>
</filter>
<filter id="filter1_d_27_999" x="9.90428" y="5.8398" width="17.4088" height="18.1519" filterUnits="userSpaceOnUse" color-interpolation-filters="sRGB">
<feFlood flood-opacity="0" result="BackgroundImageFix"/>
<feColorMatrix in="SourceAlpha" type="matrix" values="0 0 0 0 0 0 0 0 0 0 0 0 0 0 0 0 0 0 127 0" result="hardAlpha"/>
<feOffset dy="2"/>
<feGaussianBlur stdDeviation="2"/>
<feComposite in2="hardAlpha" operator="out"/>
<feColorMatrix type="matrix" values="0 0 0 0 0 0 0 0 0 0 0 0 0 0 0 0 0 0 0.6 0"/>
<feBlend mode="normal" in2="BackgroundImageFix" result="effect1_dropShadow_27_999"/>
<feBlend mode="normal" in="SourceGraphic" in2="effect1_dropShadow_27_999" result="shape"/>
</filter>
<filter id="filter2_d_27_999" x="0" y="-1.81369" width="18.3136" height="17.3237" filterUnits="userSpaceOnUse" color-interpolation-filters="sRGB">
<feFlood flood-opacity="0" result="BackgroundImageFix"/>
<feColorMatrix in="SourceAlpha" type="matrix" values="0 0 0 0 0 0 0 0 0 0 0 0 0 0 0 0 0 0 127 0" result="hardAlpha"/>
<feOffset dy="2"/>
<feGaussianBlur stdDeviation="2"/>
<feComposite in2="hardAlpha" operator="out"/>
<feColorMatrix type="matrix" values="0 0 0 0 0 0 0 0 0 0 0 0 0 0 0 0 0 0 0.3 0"/>
<feBlend mode="normal" in2="BackgroundImageFix" result="effect1_dropShadow_27_999"/>
<feBlend mode="normal" in="SourceGraphic" in2="effect1_dropShadow_27_999" result="shape"/>
</filter>
<linearGradient id="paint0_linear_27_999" x1="19.5139" y1="0.803444" x2="15.907" y2="15.3633" gradientUnits="userSpaceOnUse">
<stop offset="0.759615" stop-color="white" stop-opacity="0.4"/>
<stop offset="0.826923" stop-color="#FF0000" stop-opacity="0.5"/>
<stop offset="0.913462" stop-color="#990000"/>
</linearGradient>
<linearGradient id="paint1_linear_27_999" x1="19.5139" y1="0.803444" x2="15.907" y2="15.3633" gradientUnits="userSpaceOnUse">
<stop offset="0.519231" stop-color="#FF0000" stop-opacity="0.4"/>
<stop offset="0.735577" stop-color="#990000"/>
<stop offset="0.879808" stop-color="#070202" stop-opacity="0.1"/>
</linearGradient>
<linearGradient id="paint2_linear_27_999" x1="19.5139" y1="0.803444" x2="15.907" y2="15.3633" gradientUnits="userSpaceOnUse">
<stop offset="0.432692" stop-color="white" stop-opacity="0.7"/>
<stop offset="0.639423" stop-color="#FF0000" stop-opacity="0.4"/>
<stop offset="0.817308" stop-color="#CC0000" stop-opacity="0.7"/>
<stop offset="1" stop-color="#990000"/>
</linearGradient>
<radialGradient id="paint3_radial_27_999" cx="0" cy="0" r="1" gradientUnits="userSpaceOnUse" gradientTransform="translate(17.7104 8.08339) rotate(103.914) scale(7.5)">
<stop stop-color="#00B395"/>
<stop offset="0.5625" stop-color="#004D40"/>
<stop offset="0.740385" stop-color="#004D40"/>
</radialGradient>
<linearGradient id="paint4_linear_27_999" x1="19.5139" y1="0.803444" x2="15.907" y2="15.3633" gradientUnits="userSpaceOnUse">
<stop stop-color="white" stop-opacity="0.4"/>
<stop offset="0.149038" stop-color="#00B395"/>
<stop offset="0.336538" stop-color="#00806B"/>
<stop offset="0.605769" stop-color="#004D40"/>
</linearGradient>
<linearGradient id="paint5_linear_27_999" x1="19.5139" y1="0.803444" x2="15.907" y2="15.3633" gradientUnits="userSpaceOnUse">
<stop offset="0.572115" stop-color="white" stop-opacity="0.5"/>
<stop offset="0.625" stop-color="#00B395"/>
<stop offset="0.711538" stop-color="#00806B"/>
<stop offset="0.831731" stop-color="#004D40"/>
</linearGradient>
<linearGradient id="paint6_linear_27_999" x1="22.9745" y1="9.35686" x2="16.2605" y2="16.6241" gradientUnits="userSpaceOnUse">
<stop offset="0.759615" stop-color="white" stop-opacity="0.4"/>
<stop offset="0.826923" stop-color="#FF0000" stop-opacity="0.5"/>
<stop offset="0.9375" stop-color="#990000"/>
</linearGradient>
<linearGradient id="paint7_linear_27_999" x1="22.9745" y1="9.35686" x2="16.2605" y2="16.6241" gradientUnits="userSpaceOnUse">
<stop offset="0.519231" stop-color="#FF0000" stop-opacity="0.4"/>
<stop offset="0.735577" stop-color="#990000"/>
<stop offset="0.879808" stop-color="#070202" stop-opacity="0.1"/>
</linearGradient>
<linearGradient id="paint8_linear_27_999" x1="22.9745" y1="9.35686" x2="16.2605" y2="16.6241" gradientUnits="userSpaceOnUse">
<stop offset="0.432692" stop-color="white" stop-opacity="0.7"/>
<stop offset="0.639423" stop-color="#FF0000" stop-opacity="0.7"/>
<stop offset="0.817308" stop-color="#CC0000" stop-opacity="0.8"/>
<stop offset="1" stop-color="#990000"/>
</linearGradient>
<radialGradient id="paint9_radial_27_999" cx="0" cy="0" r="1" gradientUnits="userSpaceOnUse" gradientTransform="translate(19.6175 12.9905) rotate(132.734) scale(4.94698 4.9468)">
<stop stop-color="#00B395"/>
<stop offset="0.5625" stop-color="#004D40"/>
<stop offset="0.740385" stop-color="#004D40"/>
</radialGradient>
<linearGradient id="paint10_linear_27_999" x1="22.9745" y1="9.35686" x2="16.2605" y2="16.6241" gradientUnits="userSpaceOnUse">
<stop stop-color="white" stop-opacity="0.4"/>
<stop offset="0.149038" stop-color="#00B395"/>
<stop offset="0.336538" stop-color="#00806B"/>
<stop offset="0.605769" stop-color="#004D40"/>
</linearGradient>
<linearGradient id="paint11_linear_27_999" x1="22.9745" y1="9.35686" x2="16.2605" y2="16.6241" gradientUnits="userSpaceOnUse">
<stop offset="0.572115" stop-color="white" stop-opacity="0.5"/>
<stop offset="0.625" stop-color="#00B395"/>
<stop offset="0.711538" stop-color="#00806B"/>
<stop offset="0.831731" stop-color="#004D40"/>
</linearGradient>
<linearGradient id="paint12_linear_27_999" x1="5.12069" y1="1.2723" x2="13.6656" y2="6.2598" gradientUnits="userSpaceOnUse">
<stop offset="0.759615" stop-color="white" stop-opacity="0.4"/>
<stop offset="0.826923" stop-color="#FF0000" stop-opacity="0.5"/>
<stop offset="0.913462" stop-color="#990000"/>
</linearGradient>
<linearGradient id="paint13_linear_27_999" x1="5.12069" y1="1.2723" x2="13.6656" y2="6.2598" gradientUnits="userSpaceOnUse">
<stop offset="0.519231" stop-color="#FF0000" stop-opacity="0.4"/>
<stop offset="0.735577" stop-color="#990000"/>
<stop offset="0.879808" stop-color="#070202" stop-opacity="0.1"/>
</linearGradient>
<linearGradient id="paint14_linear_27_999" x1="5.12069" y1="1.2723" x2="13.6656" y2="6.2598" gradientUnits="userSpaceOnUse">
<stop offset="0.432692" stop-color="white" stop-opacity="0.7"/>
<stop offset="0.639423" stop-color="#FF0000" stop-opacity="0.4"/>
<stop offset="0.817308" stop-color="#CC0000" stop-opacity="0.7"/>
<stop offset="1" stop-color="#990000"/>
</linearGradient>
<radialGradient id="paint15_radial_27_999" cx="0" cy="0" r="1" gradientUnits="userSpaceOnUse" gradientTransform="translate(9.39314 3.76605) rotate(30.2713) scale(4.94698 4.9468)">
<stop stop-color="#00B395"/>
<stop offset="0.5625" stop-color="#004D40"/>
<stop offset="0.740385" stop-color="#004D40"/>
</radialGradient>
<linearGradient id="paint16_linear_27_999" x1="5.12069" y1="1.2723" x2="13.6656" y2="6.2598" gradientUnits="userSpaceOnUse">
<stop stop-color="white" stop-opacity="0.4"/>
<stop offset="0.149038" stop-color="#00B395"/>
<stop offset="0.336538" stop-color="#00806B"/>
<stop offset="0.605769" stop-color="#004D40"/>
</linearGradient>
<linearGradient id="paint17_linear_27_999" x1="5.12069" y1="1.2723" x2="13.6656" y2="6.2598" gradientUnits="userSpaceOnUse">
<stop offset="0.572115" stop-color="white" stop-opacity="0.5"/>
<stop offset="0.625" stop-color="#00B395"/>
<stop offset="0.711538" stop-color="#00806B"/>
<stop offset="0.831731" stop-color="#004D40"/>
</linearGradient>
</defs>
</svg>
