<svg width="58" height="30" viewBox="0 0 58 30" fill="none" xmlns="http://www.w3.org/2000/svg">
<g opacity="0.7" filter="url(#filter0_f_20_719)">
<path d="M4.63733 3.20001L4.80004 5.36215L6.59191 4.14129L5.00293 5.61657L7.07465 6.25631L4.93052 5.93382L5.72204 7.95243L4.63733 6.07501L3.55262 7.95243L4.34414 5.93382L2.20001 6.25631L4.27173 5.61657L2.68275 4.14129L4.47462 5.36215L4.63733 3.20001Z" fill="url(#paint0_radial_20_719)"/>
</g>
<g opacity="0.7" filter="url(#filter1_f_20_719)">
<path d="M11.1373 14.2L11.3326 16.7946L13.4828 15.3295L11.576 17.0999L14.0621 17.8676L11.4892 17.4806L12.439 19.9029L11.1373 17.65L9.83568 19.9029L10.7855 17.4806L8.21255 17.8676L10.6986 17.0999L8.79183 15.3295L10.9421 16.7946L11.1373 14.2Z" fill="url(#paint1_radial_20_719)"/>
</g>
<g opacity="0.7" filter="url(#filter2_f_20_719)">
<path d="M15.6373 5.20001L15.8 7.36215L17.5919 6.14129L16.0029 7.61657L18.0746 8.25631L15.9305 7.93382L16.722 9.95243L15.6373 8.07501L14.5526 9.95243L15.3441 7.93382L13.2 8.25631L15.2717 7.61657L13.6828 6.14129L15.4746 7.36215L15.6373 5.20001Z" fill="url(#paint2_radial_20_719)"/>
</g>
<g opacity="0.7" filter="url(#filter3_f_20_719)">
<path d="M31.6373 0.200012L31.8 2.36215L33.5919 1.14129L32.0029 2.61657L34.0746 3.25631L31.9305 2.93382L32.722 4.95243L31.6373 3.07501L30.5526 4.95243L31.3441 2.93382L29.2 3.25631L31.2717 2.61657L29.6828 1.14129L31.4746 2.36215L31.6373 0.200012Z" fill="url(#paint3_radial_20_719)"/>
</g>
<g opacity="0.7" filter="url(#filter4_f_20_719)">
<path d="M50.6373 19.2L50.8 21.3621L52.5919 20.1413L51.0029 21.6166L53.0746 22.2563L50.9305 21.9338L51.722 23.9524L50.6373 22.075L49.5526 23.9524L50.3441 21.9338L48.2 22.2563L50.2717 21.6166L48.6828 20.1413L50.4746 21.3621L50.6373 19.2Z" fill="url(#paint4_radial_20_719)"/>
</g>
<g opacity="0.7" filter="url(#filter5_f_20_719)">
<path d="M54.6373 9.20001L54.8 11.3621L56.5919 10.1413L55.0029 11.6166L57.0746 12.2563L54.9305 11.9338L55.722 13.9524L54.6373 12.075L53.5526 13.9524L54.3441 11.9338L52.2 12.2563L54.2717 11.6166L52.6828 10.1413L54.4746 11.3621L54.6373 9.20001Z" fill="url(#paint5_radial_20_719)"/>
</g>
<g opacity="0.7" filter="url(#filter6_f_20_719)">
<path d="M44.6373 5.20001L44.8 7.36215L46.5919 6.14129L45.0029 7.61657L47.0746 8.25631L44.9305 7.93382L45.722 9.95243L44.6373 8.07501L43.5526 9.95243L44.3441 7.93382L42.2 8.25631L44.2717 7.61657L42.6828 6.14129L44.4746 7.36215L44.6373 5.20001Z" fill="url(#paint6_radial_20_719)"/>
</g>
<g opacity="0.7" filter="url(#filter7_f_20_719)">
<path d="M20.6373 22.2L20.8 24.3621L22.5919 23.1413L21.0029 24.6166L23.0746 25.2563L20.9305 24.9338L21.722 26.9524L20.6373 25.075L19.5526 26.9524L20.3441 24.9338L18.2 25.2563L20.2717 24.6166L18.6828 23.1413L20.4746 24.3621L20.6373 22.2Z" fill="url(#paint7_radial_20_719)"/>
</g>
<g opacity="0.7" filter="url(#filter8_f_20_719)">
<path d="M2.63733 11.2L2.74983 12.5052L3.93637 11.95L2.86233 12.7L3.93637 13.45L2.74983 12.8949L2.63733 14.2L2.52483 12.8949L1.33829 13.45L2.41233 12.7L1.33829 11.95L2.52483 12.5052L2.63733 11.2Z" fill="url(#paint8_radial_20_719)"/>
</g>
<g opacity="0.7" filter="url(#filter9_f_20_719)">
<path d="M11.6373 23.2L11.7498 24.5052L12.9364 23.95L11.8623 24.7L12.9364 25.45L11.7498 24.8949L11.6373 26.2L11.5248 24.8949L10.3383 25.45L11.4123 24.7L10.3383 23.95L11.5248 24.5052L11.6373 23.2Z" fill="url(#paint9_radial_20_719)"/>
</g>
<g opacity="0.7" filter="url(#filter10_f_20_719)">
<path d="M34.6373 26.2L34.7498 27.5052L35.9364 26.95L34.8623 27.7L35.9364 28.45L34.7498 27.8949L34.6373 29.2L34.5248 27.8949L33.3383 28.45L34.4123 27.7L33.3383 26.95L34.5248 27.5052L34.6373 26.2Z" fill="url(#paint10_radial_20_719)"/>
</g>
<g opacity="0.7" filter="url(#filter11_f_20_719)">
<path d="M17.6373 12.2L17.7498 13.5052L18.9364 12.95L17.8623 13.7L18.9364 14.45L17.7498 13.8949L17.6373 15.2L17.5248 13.8949L16.3383 14.45L17.4123 13.7L16.3383 12.95L17.5248 13.5052L17.6373 12.2Z" fill="url(#paint11_radial_20_719)"/>
</g>
<g opacity="0.7" filter="url(#filter12_f_20_719)">
<path d="M20.6373 3.20001L20.7498 4.50516L21.9364 3.95001L20.8623 4.70001L21.9364 5.45001L20.7498 4.89487L20.6373 6.20001L20.5248 4.89487L19.3383 5.45001L20.4123 4.70001L19.3383 3.95001L20.5248 4.50516L20.6373 3.20001Z" fill="url(#paint12_radial_20_719)"/>
</g>
<g opacity="0.7" filter="url(#filter13_f_20_719)">
<path d="M27.6373 7.20001L27.7498 8.50516L28.9364 7.95001L27.8623 8.70001L28.9364 9.45001L27.7498 8.89487L27.6373 10.2L27.5248 8.89487L26.3383 9.45001L27.4123 8.70001L26.3383 7.95001L27.5248 8.50516L27.6373 7.20001Z" fill="url(#paint13_radial_20_719)"/>
</g>
<g opacity="0.7" filter="url(#filter14_f_20_719)">
<path d="M46.6373 25.2L46.7498 26.5052L47.9364 25.95L46.8623 26.7L47.9364 27.45L46.7498 26.8949L46.6373 28.2L46.5248 26.8949L45.3383 27.45L46.4123 26.7L45.3383 25.95L46.5248 26.5052L46.6373 25.2Z" fill="url(#paint14_radial_20_719)"/>
</g>
<g opacity="0.7" filter="url(#filter15_f_20_719)">
<path d="M43.6373 16.2L43.7498 17.5052L44.9364 16.95L43.8623 17.7L44.9364 18.45L43.7498 17.8949L43.6373 19.2L43.5248 17.8949L42.3383 18.45L43.4123 17.7L42.3383 16.95L43.5248 17.5052L43.6373 16.2Z" fill="url(#paint15_radial_20_719)"/>
</g>
<g opacity="0.7" filter="url(#filter16_f_20_719)">
<path d="M51.6373 2.20001L51.7498 3.50516L52.9364 2.95001L51.8623 3.70001L52.9364 4.45001L51.7498 3.89487L51.6373 5.20001L51.5248 3.89487L50.3383 4.45001L51.4123 3.70001L50.3383 2.95001L51.5248 3.50516L51.6373 2.20001Z" fill="url(#paint16_radial_20_719)"/>
</g>
<g opacity="0.7" filter="url(#filter17_f_20_719)">
<path d="M38.6373 10.2L38.7498 11.5052L39.9364 10.95L38.8623 11.7L39.9364 12.45L38.7498 11.8949L38.6373 13.2L38.5248 11.8949L37.3383 12.45L38.4123 11.7L37.3383 10.95L38.5248 11.5052L38.6373 10.2Z" fill="url(#paint17_radial_20_719)"/>
</g>
<g opacity="0.7" filter="url(#filter18_f_20_719)">
<path d="M2.63733 20.2L2.80004 22.3621L4.59191 21.1413L3.00293 22.6166L5.07465 23.2563L2.93052 22.9338L3.72204 24.9524L2.63733 23.075L1.55262 24.9524L2.34414 22.9338L0.200009 23.2563L2.27173 22.6166L0.68275 21.1413L2.47462 22.3621L2.63733 20.2Z" fill="url(#paint18_radial_20_719)"/>
</g>
<g opacity="0.7" filter="url(#filter19_f_20_719)">
<path d="M8.13733 1.20001L8.2434 2.09395L9.13733 2.20001L8.2434 2.30608L8.13733 3.20001L8.03126 2.30608L7.13733 2.20001L8.03126 2.09395L8.13733 1.20001Z" fill="url(#paint19_radial_20_719)"/>
</g>
<g opacity="0.7" filter="url(#filter20_f_20_719)">
<path d="M4.13733 17.2L4.2434 18.0939L5.13733 18.2L4.2434 18.3061L4.13733 19.2L4.03126 18.3061L3.13733 18.2L4.03126 18.0939L4.13733 17.2Z" fill="url(#paint20_radial_20_719)"/>
</g>
<g opacity="0.7" filter="url(#filter21_f_20_719)">
<path d="M5.13733 26.2L5.2434 27.0939L6.13733 27.2L5.2434 27.3061L5.13733 28.2L5.03126 27.3061L4.13733 27.2L5.03126 27.0939L5.13733 26.2Z" fill="url(#paint21_radial_20_719)"/>
</g>
<g opacity="0.7" filter="url(#filter22_f_20_719)">
<path d="M14.1373 19.2L14.2434 20.0939L15.1373 20.2L14.2434 20.3061L14.1373 21.2L14.0313 20.3061L13.1373 20.2L14.0313 20.0939L14.1373 19.2Z" fill="url(#paint22_radial_20_719)"/>
</g>
<g opacity="0.7" filter="url(#filter23_f_20_719)">
<path d="M37.1373 5.20001L37.2434 6.09395L38.1373 6.20001L37.2434 6.30608L37.1373 7.20001L37.0313 6.30608L36.1373 6.20001L37.0313 6.09395L37.1373 5.20001Z" fill="url(#paint23_radial_20_719)"/>
</g>
<g opacity="0.7" filter="url(#filter24_f_20_719)">
<path d="M36.1373 19.2L36.2434 20.0939L37.1373 20.2L36.2434 20.3061L36.1373 21.2L36.0313 20.3061L35.1373 20.2L36.0313 20.0939L36.1373 19.2Z" fill="url(#paint24_radial_20_719)"/>
</g>
<g opacity="0.7" filter="url(#filter25_f_20_719)">
<path d="M46.1373 1.20001L46.2434 2.09395L47.1373 2.20001L46.2434 2.30608L46.1373 3.20001L46.0313 2.30608L45.1373 2.20001L46.0313 2.09395L46.1373 1.20001Z" fill="url(#paint25_radial_20_719)"/>
</g>
<g opacity="0.7" filter="url(#filter26_f_20_719)">
<path d="M48.1373 12.2L48.2434 13.0939L49.1373 13.2L48.2434 13.3061L48.1373 14.2L48.0313 13.3061L47.1373 13.2L48.0313 13.0939L48.1373 12.2Z" fill="url(#paint26_radial_20_719)"/>
</g>
<g opacity="0.7" filter="url(#filter27_f_20_719)">
<path d="M56.1373 18.2L56.2434 19.0939L57.1373 19.2L56.2434 19.3061L56.1373 20.2L56.0313 19.3061L55.1373 19.2L56.0313 19.0939L56.1373 18.2Z" fill="url(#paint27_radial_20_719)"/>
</g>
<g opacity="0.7" filter="url(#filter28_f_20_719)">
<path d="M53.1373 27.2L53.2434 28.0939L54.1373 28.2L53.2434 28.3061L53.1373 29.2L53.0313 28.3061L52.1373 28.2L53.0313 28.0939L53.1373 27.2Z" fill="url(#paint28_radial_20_719)"/>
</g>
<g opacity="0.7" filter="url(#filter29_f_20_719)">
<path d="M22.1373 17.2L22.2434 18.0939L23.1373 18.2L22.2434 18.3061L22.1373 19.2L22.0313 18.3061L21.1373 18.2L22.0313 18.0939L22.1373 17.2Z" fill="url(#paint29_radial_20_719)"/>
</g>
<g opacity="0.7" filter="url(#filter30_f_20_719)">
<path d="M24.1373 11.2L24.2434 12.0939L25.1373 12.2L24.2434 12.3061L24.1373 13.2L24.0313 12.3061L23.1373 12.2L24.0313 12.0939L24.1373 11.2Z" fill="url(#paint30_radial_20_719)"/>
</g>
<g opacity="0.7" filter="url(#filter31_f_20_719)">
<path d="M9.13733 10.2L9.2434 11.0939L10.1373 11.2L9.2434 11.3061L9.13733 12.2L9.03126 11.3061L8.13733 11.2L9.03126 11.0939L9.13733 10.2Z" fill="url(#paint31_radial_20_719)"/>
</g>
<g opacity="0.7" filter="url(#filter32_f_20_719)">
<path d="M41.1373 24.2L41.2434 25.0939L42.1373 25.2L41.2434 25.3061L41.1373 26.2L41.0313 25.3061L40.1373 25.2L41.0313 25.0939L41.1373 24.2Z" fill="url(#paint32_radial_20_719)"/>
</g>
<defs>
<filter id="filter0_f_20_719" x="2.00001" y="3.00001" width="5.27463" height="5.15241" filterUnits="userSpaceOnUse" color-interpolation-filters="sRGB">
<feFlood flood-opacity="0" result="BackgroundImageFix"/>
<feBlend mode="normal" in="SourceGraphic" in2="BackgroundImageFix" result="shape"/>
<feGaussianBlur stdDeviation="0.1" result="effect1_foregroundBlur_20_719"/>
</filter>
<filter id="filter1_f_20_719" x="8.01255" y="14" width="6.24955" height="6.10291" filterUnits="userSpaceOnUse" color-interpolation-filters="sRGB">
<feFlood flood-opacity="0" result="BackgroundImageFix"/>
<feBlend mode="normal" in="SourceGraphic" in2="BackgroundImageFix" result="shape"/>
<feGaussianBlur stdDeviation="0.1" result="effect1_foregroundBlur_20_719"/>
</filter>
<filter id="filter2_f_20_719" x="13" y="5.00001" width="5.27463" height="5.15241" filterUnits="userSpaceOnUse" color-interpolation-filters="sRGB">
<feFlood flood-opacity="0" result="BackgroundImageFix"/>
<feBlend mode="normal" in="SourceGraphic" in2="BackgroundImageFix" result="shape"/>
<feGaussianBlur stdDeviation="0.1" result="effect1_foregroundBlur_20_719"/>
</filter>
<filter id="filter3_f_20_719" x="29" y="1.22041e-05" width="5.27463" height="5.15241" filterUnits="userSpaceOnUse" color-interpolation-filters="sRGB">
<feFlood flood-opacity="0" result="BackgroundImageFix"/>
<feBlend mode="normal" in="SourceGraphic" in2="BackgroundImageFix" result="shape"/>
<feGaussianBlur stdDeviation="0.1" result="effect1_foregroundBlur_20_719"/>
</filter>
<filter id="filter4_f_20_719" x="48" y="19" width="5.27463" height="5.15241" filterUnits="userSpaceOnUse" color-interpolation-filters="sRGB">
<feFlood flood-opacity="0" result="BackgroundImageFix"/>
<feBlend mode="normal" in="SourceGraphic" in2="BackgroundImageFix" result="shape"/>
<feGaussianBlur stdDeviation="0.1" result="effect1_foregroundBlur_20_719"/>
</filter>
<filter id="filter5_f_20_719" x="52" y="9.00001" width="5.27463" height="5.15241" filterUnits="userSpaceOnUse" color-interpolation-filters="sRGB">
<feFlood flood-opacity="0" result="BackgroundImageFix"/>
<feBlend mode="normal" in="SourceGraphic" in2="BackgroundImageFix" result="shape"/>
<feGaussianBlur stdDeviation="0.1" result="effect1_foregroundBlur_20_719"/>
</filter>
<filter id="filter6_f_20_719" x="42" y="5.00001" width="5.27463" height="5.15241" filterUnits="userSpaceOnUse" color-interpolation-filters="sRGB">
<feFlood flood-opacity="0" result="BackgroundImageFix"/>
<feBlend mode="normal" in="SourceGraphic" in2="BackgroundImageFix" result="shape"/>
<feGaussianBlur stdDeviation="0.1" result="effect1_foregroundBlur_20_719"/>
</filter>
<filter id="filter7_f_20_719" x="18" y="22" width="5.27463" height="5.15241" filterUnits="userSpaceOnUse" color-interpolation-filters="sRGB">
<feFlood flood-opacity="0" result="BackgroundImageFix"/>
<feBlend mode="normal" in="SourceGraphic" in2="BackgroundImageFix" result="shape"/>
<feGaussianBlur stdDeviation="0.1" result="effect1_foregroundBlur_20_719"/>
</filter>
<filter id="filter8_f_20_719" x="1.13829" y="11" width="2.99808" height="3.4" filterUnits="userSpaceOnUse" color-interpolation-filters="sRGB">
<feFlood flood-opacity="0" result="BackgroundImageFix"/>
<feBlend mode="normal" in="SourceGraphic" in2="BackgroundImageFix" result="shape"/>
<feGaussianBlur stdDeviation="0.1" result="effect1_foregroundBlur_20_719"/>
</filter>
<filter id="filter9_f_20_719" x="10.1383" y="23" width="2.99808" height="3.4" filterUnits="userSpaceOnUse" color-interpolation-filters="sRGB">
<feFlood flood-opacity="0" result="BackgroundImageFix"/>
<feBlend mode="normal" in="SourceGraphic" in2="BackgroundImageFix" result="shape"/>
<feGaussianBlur stdDeviation="0.1" result="effect1_foregroundBlur_20_719"/>
</filter>
<filter id="filter10_f_20_719" x="33.1383" y="26" width="2.99808" height="3.4" filterUnits="userSpaceOnUse" color-interpolation-filters="sRGB">
<feFlood flood-opacity="0" result="BackgroundImageFix"/>
<feBlend mode="normal" in="SourceGraphic" in2="BackgroundImageFix" result="shape"/>
<feGaussianBlur stdDeviation="0.1" result="effect1_foregroundBlur_20_719"/>
</filter>
<filter id="filter11_f_20_719" x="16.1383" y="12" width="2.99808" height="3.4" filterUnits="userSpaceOnUse" color-interpolation-filters="sRGB">
<feFlood flood-opacity="0" result="BackgroundImageFix"/>
<feBlend mode="normal" in="SourceGraphic" in2="BackgroundImageFix" result="shape"/>
<feGaussianBlur stdDeviation="0.1" result="effect1_foregroundBlur_20_719"/>
</filter>
<filter id="filter12_f_20_719" x="19.1383" y="3.00001" width="2.99808" height="3.4" filterUnits="userSpaceOnUse" color-interpolation-filters="sRGB">
<feFlood flood-opacity="0" result="BackgroundImageFix"/>
<feBlend mode="normal" in="SourceGraphic" in2="BackgroundImageFix" result="shape"/>
<feGaussianBlur stdDeviation="0.1" result="effect1_foregroundBlur_20_719"/>
</filter>
<filter id="filter13_f_20_719" x="26.1383" y="7.00001" width="2.99808" height="3.4" filterUnits="userSpaceOnUse" color-interpolation-filters="sRGB">
<feFlood flood-opacity="0" result="BackgroundImageFix"/>
<feBlend mode="normal" in="SourceGraphic" in2="BackgroundImageFix" result="shape"/>
<feGaussianBlur stdDeviation="0.1" result="effect1_foregroundBlur_20_719"/>
</filter>
<filter id="filter14_f_20_719" x="45.1383" y="25" width="2.99808" height="3.4" filterUnits="userSpaceOnUse" color-interpolation-filters="sRGB">
<feFlood flood-opacity="0" result="BackgroundImageFix"/>
<feBlend mode="normal" in="SourceGraphic" in2="BackgroundImageFix" result="shape"/>
<feGaussianBlur stdDeviation="0.1" result="effect1_foregroundBlur_20_719"/>
</filter>
<filter id="filter15_f_20_719" x="42.1383" y="16" width="2.99808" height="3.4" filterUnits="userSpaceOnUse" color-interpolation-filters="sRGB">
<feFlood flood-opacity="0" result="BackgroundImageFix"/>
<feBlend mode="normal" in="SourceGraphic" in2="BackgroundImageFix" result="shape"/>
<feGaussianBlur stdDeviation="0.1" result="effect1_foregroundBlur_20_719"/>
</filter>
<filter id="filter16_f_20_719" x="50.1383" y="2.00001" width="2.99808" height="3.4" filterUnits="userSpaceOnUse" color-interpolation-filters="sRGB">
<feFlood flood-opacity="0" result="BackgroundImageFix"/>
<feBlend mode="normal" in="SourceGraphic" in2="BackgroundImageFix" result="shape"/>
<feGaussianBlur stdDeviation="0.1" result="effect1_foregroundBlur_20_719"/>
</filter>
<filter id="filter17_f_20_719" x="37.1383" y="10" width="2.99808" height="3.4" filterUnits="userSpaceOnUse" color-interpolation-filters="sRGB">
<feFlood flood-opacity="0" result="BackgroundImageFix"/>
<feBlend mode="normal" in="SourceGraphic" in2="BackgroundImageFix" result="shape"/>
<feGaussianBlur stdDeviation="0.1" result="effect1_foregroundBlur_20_719"/>
</filter>
<filter id="filter18_f_20_719" x="1.22041e-05" y="20" width="5.27463" height="5.15241" filterUnits="userSpaceOnUse" color-interpolation-filters="sRGB">
<feFlood flood-opacity="0" result="BackgroundImageFix"/>
<feBlend mode="normal" in="SourceGraphic" in2="BackgroundImageFix" result="shape"/>
<feGaussianBlur stdDeviation="0.1" result="effect1_foregroundBlur_20_719"/>
</filter>
<filter id="filter19_f_20_719" x="6.93733" y="1.00001" width="2.4" height="2.4" filterUnits="userSpaceOnUse" color-interpolation-filters="sRGB">
<feFlood flood-opacity="0" result="BackgroundImageFix"/>
<feBlend mode="normal" in="SourceGraphic" in2="BackgroundImageFix" result="shape"/>
<feGaussianBlur stdDeviation="0.1" result="effect1_foregroundBlur_20_719"/>
</filter>
<filter id="filter20_f_20_719" x="2.93733" y="17" width="2.4" height="2.4" filterUnits="userSpaceOnUse" color-interpolation-filters="sRGB">
<feFlood flood-opacity="0" result="BackgroundImageFix"/>
<feBlend mode="normal" in="SourceGraphic" in2="BackgroundImageFix" result="shape"/>
<feGaussianBlur stdDeviation="0.1" result="effect1_foregroundBlur_20_719"/>
</filter>
<filter id="filter21_f_20_719" x="3.93733" y="26" width="2.4" height="2.4" filterUnits="userSpaceOnUse" color-interpolation-filters="sRGB">
<feFlood flood-opacity="0" result="BackgroundImageFix"/>
<feBlend mode="normal" in="SourceGraphic" in2="BackgroundImageFix" result="shape"/>
<feGaussianBlur stdDeviation="0.1" result="effect1_foregroundBlur_20_719"/>
</filter>
<filter id="filter22_f_20_719" x="12.9373" y="19" width="2.4" height="2.4" filterUnits="userSpaceOnUse" color-interpolation-filters="sRGB">
<feFlood flood-opacity="0" result="BackgroundImageFix"/>
<feBlend mode="normal" in="SourceGraphic" in2="BackgroundImageFix" result="shape"/>
<feGaussianBlur stdDeviation="0.1" result="effect1_foregroundBlur_20_719"/>
</filter>
<filter id="filter23_f_20_719" x="35.9373" y="5.00001" width="2.4" height="2.4" filterUnits="userSpaceOnUse" color-interpolation-filters="sRGB">
<feFlood flood-opacity="0" result="BackgroundImageFix"/>
<feBlend mode="normal" in="SourceGraphic" in2="BackgroundImageFix" result="shape"/>
<feGaussianBlur stdDeviation="0.1" result="effect1_foregroundBlur_20_719"/>
</filter>
<filter id="filter24_f_20_719" x="34.9373" y="19" width="2.4" height="2.4" filterUnits="userSpaceOnUse" color-interpolation-filters="sRGB">
<feFlood flood-opacity="0" result="BackgroundImageFix"/>
<feBlend mode="normal" in="SourceGraphic" in2="BackgroundImageFix" result="shape"/>
<feGaussianBlur stdDeviation="0.1" result="effect1_foregroundBlur_20_719"/>
</filter>
<filter id="filter25_f_20_719" x="44.9373" y="1.00001" width="2.4" height="2.4" filterUnits="userSpaceOnUse" color-interpolation-filters="sRGB">
<feFlood flood-opacity="0" result="BackgroundImageFix"/>
<feBlend mode="normal" in="SourceGraphic" in2="BackgroundImageFix" result="shape"/>
<feGaussianBlur stdDeviation="0.1" result="effect1_foregroundBlur_20_719"/>
</filter>
<filter id="filter26_f_20_719" x="46.9373" y="12" width="2.4" height="2.4" filterUnits="userSpaceOnUse" color-interpolation-filters="sRGB">
<feFlood flood-opacity="0" result="BackgroundImageFix"/>
<feBlend mode="normal" in="SourceGraphic" in2="BackgroundImageFix" result="shape"/>
<feGaussianBlur stdDeviation="0.1" result="effect1_foregroundBlur_20_719"/>
</filter>
<filter id="filter27_f_20_719" x="54.9373" y="18" width="2.4" height="2.4" filterUnits="userSpaceOnUse" color-interpolation-filters="sRGB">
<feFlood flood-opacity="0" result="BackgroundImageFix"/>
<feBlend mode="normal" in="SourceGraphic" in2="BackgroundImageFix" result="shape"/>
<feGaussianBlur stdDeviation="0.1" result="effect1_foregroundBlur_20_719"/>
</filter>
<filter id="filter28_f_20_719" x="51.9373" y="27" width="2.4" height="2.4" filterUnits="userSpaceOnUse" color-interpolation-filters="sRGB">
<feFlood flood-opacity="0" result="BackgroundImageFix"/>
<feBlend mode="normal" in="SourceGraphic" in2="BackgroundImageFix" result="shape"/>
<feGaussianBlur stdDeviation="0.1" result="effect1_foregroundBlur_20_719"/>
</filter>
<filter id="filter29_f_20_719" x="20.9373" y="17" width="2.4" height="2.4" filterUnits="userSpaceOnUse" color-interpolation-filters="sRGB">
<feFlood flood-opacity="0" result="BackgroundImageFix"/>
<feBlend mode="normal" in="SourceGraphic" in2="BackgroundImageFix" result="shape"/>
<feGaussianBlur stdDeviation="0.1" result="effect1_foregroundBlur_20_719"/>
</filter>
<filter id="filter30_f_20_719" x="22.9373" y="11" width="2.4" height="2.4" filterUnits="userSpaceOnUse" color-interpolation-filters="sRGB">
<feFlood flood-opacity="0" result="BackgroundImageFix"/>
<feBlend mode="normal" in="SourceGraphic" in2="BackgroundImageFix" result="shape"/>
<feGaussianBlur stdDeviation="0.1" result="effect1_foregroundBlur_20_719"/>
</filter>
<filter id="filter31_f_20_719" x="7.93733" y="10" width="2.4" height="2.4" filterUnits="userSpaceOnUse" color-interpolation-filters="sRGB">
<feFlood flood-opacity="0" result="BackgroundImageFix"/>
<feBlend mode="normal" in="SourceGraphic" in2="BackgroundImageFix" result="shape"/>
<feGaussianBlur stdDeviation="0.1" result="effect1_foregroundBlur_20_719"/>
</filter>
<filter id="filter32_f_20_719" x="39.9373" y="24" width="2.4" height="2.4" filterUnits="userSpaceOnUse" color-interpolation-filters="sRGB">
<feFlood flood-opacity="0" result="BackgroundImageFix"/>
<feBlend mode="normal" in="SourceGraphic" in2="BackgroundImageFix" result="shape"/>
<feGaussianBlur stdDeviation="0.1" result="effect1_foregroundBlur_20_719"/>
</filter>
<radialGradient id="paint0_radial_20_719" cx="0" cy="0" r="1" gradientUnits="userSpaceOnUse" gradientTransform="translate(4.63733 5.70001) rotate(90) scale(1.66667)">
<stop stop-color="#FFCC00"/>
<stop offset="1" stop-color="#997A00"/>
</radialGradient>
<radialGradient id="paint1_radial_20_719" cx="0" cy="0" r="1" gradientUnits="userSpaceOnUse" gradientTransform="translate(11.1373 17.2) rotate(90) scale(2)">
<stop stop-color="#FFCC00"/>
<stop offset="1" stop-color="#997A00"/>
</radialGradient>
<radialGradient id="paint2_radial_20_719" cx="0" cy="0" r="1" gradientUnits="userSpaceOnUse" gradientTransform="translate(15.6373 7.70001) rotate(90) scale(1.66667)">
<stop stop-color="#FFCC00"/>
<stop offset="1" stop-color="#997A00"/>
</radialGradient>
<radialGradient id="paint3_radial_20_719" cx="0" cy="0" r="1" gradientUnits="userSpaceOnUse" gradientTransform="translate(31.6373 2.70001) rotate(90) scale(1.66667)">
<stop stop-color="#FFCC00"/>
<stop offset="1" stop-color="#997A00"/>
</radialGradient>
<radialGradient id="paint4_radial_20_719" cx="0" cy="0" r="1" gradientUnits="userSpaceOnUse" gradientTransform="translate(50.6373 21.7) rotate(90) scale(1.66667)">
<stop stop-color="#FFCC00"/>
<stop offset="1" stop-color="#997A00"/>
</radialGradient>
<radialGradient id="paint5_radial_20_719" cx="0" cy="0" r="1" gradientUnits="userSpaceOnUse" gradientTransform="translate(54.6373 11.7) rotate(90) scale(1.66667)">
<stop stop-color="#FFCC00"/>
<stop offset="1" stop-color="#997A00"/>
</radialGradient>
<radialGradient id="paint6_radial_20_719" cx="0" cy="0" r="1" gradientUnits="userSpaceOnUse" gradientTransform="translate(44.6373 7.70001) rotate(90) scale(1.66667)">
<stop stop-color="#FFCC00"/>
<stop offset="1" stop-color="#997A00"/>
</radialGradient>
<radialGradient id="paint7_radial_20_719" cx="0" cy="0" r="1" gradientUnits="userSpaceOnUse" gradientTransform="translate(20.6373 24.7) rotate(90) scale(1.66667)">
<stop stop-color="#FFCC00"/>
<stop offset="1" stop-color="#997A00"/>
</radialGradient>
<radialGradient id="paint8_radial_20_719" cx="0" cy="0" r="1" gradientUnits="userSpaceOnUse" gradientTransform="translate(2.63733 12.7) rotate(90)">
<stop stop-color="#FFCC00"/>
<stop offset="1" stop-color="#997A00"/>
</radialGradient>
<radialGradient id="paint9_radial_20_719" cx="0" cy="0" r="1" gradientUnits="userSpaceOnUse" gradientTransform="translate(11.6373 24.7) rotate(90)">
<stop stop-color="#FFCC00"/>
<stop offset="1" stop-color="#997A00"/>
</radialGradient>
<radialGradient id="paint10_radial_20_719" cx="0" cy="0" r="1" gradientUnits="userSpaceOnUse" gradientTransform="translate(34.6373 27.7) rotate(90)">
<stop stop-color="#FFCC00"/>
<stop offset="1" stop-color="#997A00"/>
</radialGradient>
<radialGradient id="paint11_radial_20_719" cx="0" cy="0" r="1" gradientUnits="userSpaceOnUse" gradientTransform="translate(17.6373 13.7) rotate(90)">
<stop stop-color="#FFCC00"/>
<stop offset="1" stop-color="#997A00"/>
</radialGradient>
<radialGradient id="paint12_radial_20_719" cx="0" cy="0" r="1" gradientUnits="userSpaceOnUse" gradientTransform="translate(20.6373 4.70001) rotate(90)">
<stop stop-color="#FFCC00"/>
<stop offset="1" stop-color="#997A00"/>
</radialGradient>
<radialGradient id="paint13_radial_20_719" cx="0" cy="0" r="1" gradientUnits="userSpaceOnUse" gradientTransform="translate(27.6373 8.70001) rotate(90)">
<stop stop-color="#FFCC00"/>
<stop offset="1" stop-color="#997A00"/>
</radialGradient>
<radialGradient id="paint14_radial_20_719" cx="0" cy="0" r="1" gradientUnits="userSpaceOnUse" gradientTransform="translate(46.6373 26.7) rotate(90)">
<stop stop-color="#FFCC00"/>
<stop offset="1" stop-color="#997A00"/>
</radialGradient>
<radialGradient id="paint15_radial_20_719" cx="0" cy="0" r="1" gradientUnits="userSpaceOnUse" gradientTransform="translate(43.6373 17.7) rotate(90)">
<stop stop-color="#FFCC00"/>
<stop offset="1" stop-color="#997A00"/>
</radialGradient>
<radialGradient id="paint16_radial_20_719" cx="0" cy="0" r="1" gradientUnits="userSpaceOnUse" gradientTransform="translate(51.6373 3.70001) rotate(90)">
<stop stop-color="#FFCC00"/>
<stop offset="1" stop-color="#997A00"/>
</radialGradient>
<radialGradient id="paint17_radial_20_719" cx="0" cy="0" r="1" gradientUnits="userSpaceOnUse" gradientTransform="translate(38.6373 11.7) rotate(90)">
<stop stop-color="#FFCC00"/>
<stop offset="1" stop-color="#997A00"/>
</radialGradient>
<radialGradient id="paint18_radial_20_719" cx="0" cy="0" r="1" gradientUnits="userSpaceOnUse" gradientTransform="translate(2.63733 22.7) rotate(90) scale(1.66667)">
<stop stop-color="#FFCC00"/>
<stop offset="1" stop-color="#997A00"/>
</radialGradient>
<radialGradient id="paint19_radial_20_719" cx="0" cy="0" r="1" gradientUnits="userSpaceOnUse" gradientTransform="translate(8.13733 2.20001) rotate(90) scale(0.666667)">
<stop stop-color="#FFCC00"/>
<stop offset="1" stop-color="#997A00"/>
</radialGradient>
<radialGradient id="paint20_radial_20_719" cx="0" cy="0" r="1" gradientUnits="userSpaceOnUse" gradientTransform="translate(4.13733 18.2) rotate(90) scale(0.666667)">
<stop stop-color="#FFCC00"/>
<stop offset="1" stop-color="#997A00"/>
</radialGradient>
<radialGradient id="paint21_radial_20_719" cx="0" cy="0" r="1" gradientUnits="userSpaceOnUse" gradientTransform="translate(5.13733 27.2) rotate(90) scale(0.666667)">
<stop stop-color="#FFCC00"/>
<stop offset="1" stop-color="#997A00"/>
</radialGradient>
<radialGradient id="paint22_radial_20_719" cx="0" cy="0" r="1" gradientUnits="userSpaceOnUse" gradientTransform="translate(14.1373 20.2) rotate(90) scale(0.666667)">
<stop stop-color="#FFCC00"/>
<stop offset="1" stop-color="#997A00"/>
</radialGradient>
<radialGradient id="paint23_radial_20_719" cx="0" cy="0" r="1" gradientUnits="userSpaceOnUse" gradientTransform="translate(37.1373 6.20001) rotate(90) scale(0.666667)">
<stop stop-color="#FFCC00"/>
<stop offset="1" stop-color="#997A00"/>
</radialGradient>
<radialGradient id="paint24_radial_20_719" cx="0" cy="0" r="1" gradientUnits="userSpaceOnUse" gradientTransform="translate(36.1373 20.2) rotate(90) scale(0.666667)">
<stop stop-color="#FFCC00"/>
<stop offset="1" stop-color="#997A00"/>
</radialGradient>
<radialGradient id="paint25_radial_20_719" cx="0" cy="0" r="1" gradientUnits="userSpaceOnUse" gradientTransform="translate(46.1373 2.20001) rotate(90) scale(0.666667)">
<stop stop-color="#FFCC00"/>
<stop offset="1" stop-color="#997A00"/>
</radialGradient>
<radialGradient id="paint26_radial_20_719" cx="0" cy="0" r="1" gradientUnits="userSpaceOnUse" gradientTransform="translate(48.1373 13.2) rotate(90) scale(0.666667)">
<stop stop-color="#FFCC00"/>
<stop offset="1" stop-color="#997A00"/>
</radialGradient>
<radialGradient id="paint27_radial_20_719" cx="0" cy="0" r="1" gradientUnits="userSpaceOnUse" gradientTransform="translate(56.1373 19.2) rotate(90) scale(0.666667)">
<stop stop-color="#FFCC00"/>
<stop offset="1" stop-color="#997A00"/>
</radialGradient>
<radialGradient id="paint28_radial_20_719" cx="0" cy="0" r="1" gradientUnits="userSpaceOnUse" gradientTransform="translate(53.1373 28.2) rotate(90) scale(0.666667)">
<stop stop-color="#FFCC00"/>
<stop offset="1" stop-color="#997A00"/>
</radialGradient>
<radialGradient id="paint29_radial_20_719" cx="0" cy="0" r="1" gradientUnits="userSpaceOnUse" gradientTransform="translate(22.1373 18.2) rotate(90) scale(0.666667)">
<stop stop-color="#FFCC00"/>
<stop offset="1" stop-color="#997A00"/>
</radialGradient>
<radialGradient id="paint30_radial_20_719" cx="0" cy="0" r="1" gradientUnits="userSpaceOnUse" gradientTransform="translate(24.1373 12.2) rotate(90) scale(0.666667)">
<stop stop-color="#FFCC00"/>
<stop offset="1" stop-color="#997A00"/>
</radialGradient>
<radialGradient id="paint31_radial_20_719" cx="0" cy="0" r="1" gradientUnits="userSpaceOnUse" gradientTransform="translate(9.13733 11.2) rotate(90) scale(0.666667)">
<stop stop-color="#FFCC00"/>
<stop offset="1" stop-color="#997A00"/>
</radialGradient>
<radialGradient id="paint32_radial_20_719" cx="0" cy="0" r="1" gradientUnits="userSpaceOnUse" gradientTransform="translate(41.1373 25.2) rotate(90) scale(0.666667)">
<stop stop-color="#FFCC00"/>
<stop offset="1" stop-color="#997A00"/>
</radialGradient>
</defs>
</svg>
