<svg width="7" height="7" viewBox="0 0 7 7" fill="none" xmlns="http://www.w3.org/2000/svg">
<path d="M4.11643 3.49963L6.87068 0.749452C6.953 0.66712 6.99925 0.555454 6.99925 0.439019C6.99925 0.322584 6.953 0.210918 6.87068 0.128586C6.78836 0.0462537 6.6767 0 6.56028 0C6.44386 0 6.33221 0.0462537 6.24988 0.128586L3.5 2.88313L0.750118 0.128586C0.667795 0.0462537 0.556141 1.03376e-07 0.439718 1.04244e-07C0.323295 1.05111e-07 0.211641 0.0462537 0.129318 0.128586C0.0469948 0.210918 0.000746202 0.322584 0.000746201 0.439019C0.0007462 0.555454 0.0469948 0.66712 0.129318 0.749452L2.88357 3.49963L0.129318 6.2498C0.0883415 6.29045 0.0558177 6.33881 0.0336225 6.39209C0.0114273 6.44537 0 6.50252 0 6.56024C0 6.61795 0.0114273 6.6751 0.0336225 6.72838C0.0558177 6.78166 0.0883415 6.83002 0.129318 6.87067C0.16996 6.91165 0.218313 6.94418 0.271588 6.96637C0.324862 6.98857 0.382005 7 0.439718 7C0.497431 7 0.554574 6.98857 0.607849 6.96637C0.661123 6.94418 0.709476 6.91165 0.750118 6.87067L3.5 4.11612L6.24988 6.87067C6.29052 6.91165 6.33888 6.94418 6.39215 6.96637C6.44543 6.98857 6.50257 7 6.56028 7C6.618 7 6.67514 6.98857 6.72841 6.96637C6.78169 6.94418 6.83004 6.91165 6.87068 6.87067C6.91166 6.83002 6.94418 6.78166 6.96638 6.72838C6.98857 6.6751 7 6.61795 7 6.56024C7 6.50252 6.98857 6.44537 6.96638 6.39209C6.94418 6.33881 6.91166 6.29045 6.87068 6.2498L4.11643 3.49963Z" fill="white"/>
</svg>
