<svg width="9" height="9" viewBox="0 0 9 9" fill="none" xmlns="http://www.w3.org/2000/svg">
<path d="M7.65 0H3.15C2.79196 0 2.44858 0.142232 2.19541 0.395406C1.94223 0.64858 1.8 0.991958 1.8 1.35V1.8H1.35C0.991958 1.8 0.64858 1.94223 0.395406 2.19541C0.142232 2.44858 0 2.79196 0 3.15V7.65C0 8.00804 0.142232 8.35142 0.395406 8.60459C0.64858 8.85777 0.991958 9 1.35 9H5.85C6.20804 9 6.55142 8.85777 6.80459 8.60459C7.05777 8.35142 7.2 8.00804 7.2 7.65V7.2H7.65C8.00804 7.2 8.35142 7.05777 8.60459 6.80459C8.85777 6.55142 9 6.20804 9 5.85V1.35C9 0.991958 8.85777 0.64858 8.60459 0.395406C8.35142 0.142232 8.00804 0 7.65 0ZM6.3 7.65C6.3 7.76935 6.25259 7.88381 6.1682 7.9682C6.08381 8.05259 5.96935 8.1 5.85 8.1H1.35C1.23065 8.1 1.11619 8.05259 1.0318 7.9682C0.947411 7.88381 0.9 7.76935 0.9 7.65V4.5H6.3V7.65ZM6.3 3.6H0.9V3.15C0.9 3.03065 0.947411 2.91619 1.0318 2.8318C1.11619 2.74741 1.23065 2.7 1.35 2.7H5.85C5.96935 2.7 6.08381 2.74741 6.1682 2.8318C6.25259 2.91619 6.3 3.03065 6.3 3.15V3.6ZM8.1 5.85C8.1 5.96935 8.05259 6.08381 7.9682 6.1682C7.88381 6.25259 7.76935 6.3 7.65 6.3H7.2V3.15C7.19878 2.99649 7.17139 2.8443 7.119 2.7H8.1V5.85ZM8.1 1.8H2.7V1.35C2.7 1.23065 2.74741 1.11619 2.8318 1.0318C2.91619 0.947411 3.03065 0.9 3.15 0.9H7.65C7.76935 0.9 7.88381 0.947411 7.9682 1.0318C8.05259 1.11619 8.1 1.23065 8.1 1.35V1.8Z" fill="white"/>
</svg>
